<svg xmlns="http://www.w3.org/2000/svg" xmlns:xlink="http://www.w3.org/1999/xlink" width="1640" zoomAndPan="magnify" viewBox="0 0 1230 693.000001" height="924" preserveAspectRatio="xMidYMid meet" version="1.0"><defs><clipPath id="id1"><path d="M 0.886719 0 L 1229.113281 0 L 1229.113281 692 L 0.886719 692 Z M 0.886719 0 " clip-rule="nonzero"/></clipPath></defs><g clip-path="url(#id1)"><path fill="#ffffff" d="M 0.886719 0 L 1229.113281 0 L 1229.113281 699.492188 L 0.886719 699.492188 Z M 0.886719 0 " fill-opacity="1" fill-rule="nonzero"/><path fill="#ffffff" d="M 0.886719 0 L 1229.113281 0 L 1229.113281 692 L 0.886719 692 Z M 0.886719 0 " fill-opacity="1" fill-rule="nonzero"/><path fill="#18bc9c" d="M 0.886719 0 L 1229.113281 0 L 1229.113281 692 L 0.886719 692 Z M 0.886719 0 " fill-opacity="1" fill-rule="nonzero"/></g><path stroke-linecap="butt" transform="matrix(3.762232, 0, 0, 3.744596, 587.0111, 347.873025)" fill="none" stroke-linejoin="miter" d="M 0.000164589 -0.000515666 L 3.224024 -0.000515666 " stroke="#2c3e50" stroke-width="1" stroke-opacity="1" stroke-miterlimit="4"/><path stroke-linecap="round" transform="matrix(3.762232, 0, 0, 3.744596, 609.488456, 347.873025)" fill-opacity="1" fill="#2c3e50" fill-rule="nonzero" stroke-linejoin="round" d="M -2.500225 -1.499551 L -0.500497 -0.000515666 L -2.500225 1.499563 Z M -2.500225 -1.499551 " stroke="#2c3e50" stroke-width="1" stroke-opacity="1" stroke-miterlimit="4"/><path stroke-linecap="butt" transform="matrix(0.000000000000000233, 3.806048, -3.744596, 0.000000000000000229, 611.253557, 323.894091)" fill="none" stroke-linejoin="miter" d="M 0.000115589 -0.0000933614 L 5.403727 -0.0000933614 " stroke="#2c3e50" stroke-width="1" stroke-opacity="1" stroke-miterlimit="4"/><path stroke-linecap="round" transform="matrix(0.000000000000000233, 3.806048, -3.744596, 0.000000000000000229, 611.253557, 346.365387)" fill="none" stroke-linejoin="round" d="M -2.499659 -1.500172 L -0.500374 -0.0000933614 L -2.499659 1.499985 " stroke="#2c3e50" stroke-width="1" stroke-opacity="1" stroke-miterlimit="4"/><path stroke-linecap="butt" transform="matrix(0.000000000000014538, -3.789998, 3.744596, 0.000000000000014364, 611.253437, 371.945689)" fill="none" stroke-linejoin="miter" d="M 0.0000994067 0.000125361 L 5.428657 0.000125361 " stroke="#2c3e50" stroke-width="1" stroke-opacity="1" stroke-miterlimit="4"/><path stroke-linecap="round" transform="matrix(0.000000000000014538, -3.789998, 3.744596, 0.000000000000014364, 611.253437, 349.47419)" fill="none" stroke-linejoin="round" d="M -2.500009 -1.499953 L -0.500503 0.000125361 L -2.500009 1.500204 " stroke="#2c3e50" stroke-width="1" stroke-opacity="1" stroke-miterlimit="4"/><path stroke-linecap="butt" transform="matrix(-3.800013, -0.000000000000000465, 0.000000000000000459, -3.744596, 637.139898, 347.873025)" fill="none" stroke-linejoin="miter" d="M -0.000191426 0.000515666 L 3.162832 0.000515666 " stroke="#2c3e50" stroke-width="1" stroke-opacity="1" stroke-miterlimit="4"/><path stroke-linecap="round" transform="matrix(-3.800013, -0.000000000000000465, 0.000000000000000459, -3.744596, 614.669755, 347.873025)" fill-opacity="1" fill="#2c3e50" fill-rule="nonzero" stroke-linejoin="round" d="M -2.499521 -1.499563 L -0.500145 0.000515666 L -2.499521 1.499551 Z M -2.499521 -1.499563 " stroke="#2c3e50" stroke-width="1" stroke-opacity="1" stroke-miterlimit="4"/></svg>