<svg xmlns="http://www.w3.org/2000/svg" xmlns:xlink="http://www.w3.org/1999/xlink" width="1640" zoomAndPan="magnify" viewBox="0 0 1230 693.000001" height="924" preserveAspectRatio="xMidYMid meet" version="1.0"><defs><clipPath id="id1"><path d="M 0.886719 0 L 1229.113281 0 L 1229.113281 692 L 0.886719 692 Z M 0.886719 0 " clip-rule="nonzero"/></clipPath><clipPath id="id2"><path d="M 0.886719 346 L 602 346 L 602 350 L 0.886719 350 Z M 0.886719 346 " clip-rule="nonzero"/></clipPath><clipPath id="id3"><path d="M 609 349 L 614 349 L 614 692 L 609 692 Z M 609 349 " clip-rule="nonzero"/></clipPath><clipPath id="id4"><path d="M 623 346 L 1229.113281 346 L 1229.113281 350 L 623 350 Z M 623 346 " clip-rule="nonzero"/></clipPath></defs><g clip-path="url(#id1)"><path fill="#ffffff" d="M 0.886719 0 L 1229.113281 0 L 1229.113281 699.492188 L 0.886719 699.492188 Z M 0.886719 0 " fill-opacity="1" fill-rule="nonzero"/><path fill="#ffffff" d="M 0.886719 0 L 1229.113281 0 L 1229.113281 692 L 0.886719 692 Z M 0.886719 0 " fill-opacity="1" fill-rule="nonzero"/><path fill="#18bc9c" d="M 0.886719 0 L 1229.113281 0 L 1229.113281 692 L 0.886719 692 Z M 0.886719 0 " fill-opacity="1" fill-rule="nonzero"/></g><g clip-path="url(#id2)"><path stroke-linecap="butt" transform="matrix(3.746226, 0, 0, 3.744596, -35.914374, 347.873025)" fill="none" stroke-linejoin="miter" d="M 0.0000831461 -0.000515666 L 169.578029 -0.000515666 " stroke="#2c3e50" stroke-width="1" stroke-opacity="1" stroke-miterlimit="4"/></g><path stroke-linecap="round" transform="matrix(3.746226, 0, 0, 3.744596, 609.663931, 347.873025)" fill-opacity="1" fill="#2c3e50" fill-rule="nonzero" stroke-linejoin="round" d="M -2.500398 -1.499551 L -0.500468 -0.000515666 L -2.500398 1.499563 Z M -2.500398 -1.499551 " stroke="#2c3e50" stroke-width="1" stroke-opacity="1" stroke-miterlimit="4"/><path stroke-linecap="butt" transform="matrix(0.000000000000000229, 3.741386, -3.744596, 0.000000000000000229, 611.254443, -49.768933)" fill="none" stroke-linejoin="miter" d="M -0.00016002 0.000143439 L 105.191481 0.000143439 " stroke="#2c3e50" stroke-width="1" stroke-opacity="1" stroke-miterlimit="4"/><path stroke-linecap="round" transform="matrix(0.000000000000000229, 3.741386, -3.744596, 0.000000000000000229, 611.254443, 345.662308)" fill="none" stroke-linejoin="round" d="M -2.500067 -1.499935 L -0.499638 0.000143439 L -2.500067 1.500222 " stroke="#2c3e50" stroke-width="1" stroke-opacity="1" stroke-miterlimit="4"/><g clip-path="url(#id3)"><path stroke-linecap="butt" transform="matrix(0.000000000000000229, -3.744596, 3.744596, 0.000000000000000229, 611.255378, 692.001433)" fill="none" stroke-linejoin="miter" d="M 0.0003827 -0.000393039 L 90.900116 -0.000393039 " stroke="#2c3e50" stroke-width="1" stroke-opacity="1" stroke-miterlimit="4"/></g><path stroke-linecap="round" transform="matrix(0.000000000000000229, -3.744596, 3.744596, 0.000000000000000229, 611.255378, 349.745323)" fill="none" stroke-linejoin="round" d="M -2.499641 -1.500471 L -0.499884 -0.000393039 L -2.499641 1.499685 " stroke="#2c3e50" stroke-width="1" stroke-opacity="1" stroke-miterlimit="4"/><g clip-path="url(#id4)"><path stroke-linecap="butt" transform="matrix(-3.744596, -0.000000000000000459, 0.000000000000000459, -3.744596, 1229.113783, 347.873025)" fill="none" stroke-linejoin="miter" d="M 0.000133876 0.000515666 L 161.250197 0.000515666 " stroke="#2c3e50" stroke-width="1" stroke-opacity="1" stroke-miterlimit="4"/></g><path stroke-linecap="round" transform="matrix(-3.744596, -0.000000000000000459, 0.000000000000000459, -3.744596, 614.999974, 347.873025)" fill-opacity="1" fill="#2c3e50" fill-rule="nonzero" stroke-linejoin="round" d="M -2.500485 -1.499563 L -0.499685 0.000515666 L -2.500485 1.499551 Z M -2.500485 -1.499563 " stroke="#2c3e50" stroke-width="1" stroke-opacity="1" stroke-miterlimit="4"/></svg>