<svg xmlns="http://www.w3.org/2000/svg" xmlns:xlink="http://www.w3.org/1999/xlink" width="1640" zoomAndPan="magnify" viewBox="0 0 1230 693.000001" height="924" preserveAspectRatio="xMidYMid meet" version="1.0"><defs><clipPath id="id1"><path d="M 0.886719 0 L 1229.113281 0 L 1229.113281 692 L 0.886719 692 Z M 0.886719 0 " clip-rule="nonzero"/></clipPath><clipPath id="id2"><path d="M 1024.183594 292 L 1204.671875 292 L 1204.671875 462.964844 L 1024.183594 462.964844 Z M 1024.183594 292 " clip-rule="nonzero"/></clipPath><clipPath id="id3"><path d="M 1024.183594 291.464844 L 1204.671875 291.464844 L 1204.671875 462.964844 L 1024.183594 462.964844 Z M 1024.183594 291.464844 " clip-rule="nonzero"/></clipPath><clipPath id="id4"><path d="M 1024.183594 548.324219 L 1158.988281 548.324219 L 1158.988281 676.390625 L 1024.183594 676.390625 Z M 1024.183594 548.324219 " clip-rule="nonzero"/></clipPath><clipPath id="id5"><path d="M 32.105469 521 L 156.425781 521 L 156.425781 639.160156 L 32.105469 639.160156 Z M 32.105469 521 " clip-rule="nonzero"/></clipPath><clipPath id="id6"><path d="M 32.105469 520.832031 L 156.425781 520.832031 L 156.425781 639 L 32.105469 639 Z M 32.105469 520.832031 " clip-rule="nonzero"/></clipPath><clipPath id="id7"><path d="M 769.238281 10.253906 L 892.8125 10.253906 L 892.8125 127.835938 L 769.238281 127.835938 Z M 769.238281 10.253906 " clip-rule="nonzero"/></clipPath><clipPath id="id8"><path d="M 905.664062 118.386719 L 998.53125 118.386719 L 998.53125 206.757812 L 905.664062 206.757812 Z M 905.664062 118.386719 " clip-rule="nonzero"/></clipPath><clipPath id="id9"><path d="M 218.917969 558.816406 L 331.257812 558.816406 L 331.257812 665.914062 L 218.917969 665.914062 Z M 218.917969 558.816406 " clip-rule="nonzero"/></clipPath><clipPath id="id10"><path d="M 14 32 L 194.382812 32 L 194.382812 203.152344 L 14 203.152344 Z M 14 32 " clip-rule="nonzero"/></clipPath><clipPath id="id11"><path d="M 13.894531 31.648438 L 194 31.648438 L 194 203 L 13.894531 203 Z M 13.894531 31.648438 " clip-rule="nonzero"/></clipPath><clipPath id="id12"><path d="M 784.054688 144.335938 L 878.417969 144.335938 L 878.417969 234.207031 L 784.054688 234.207031 Z M 784.054688 144.335938 " clip-rule="nonzero"/></clipPath><clipPath id="id13"><path d="M 784.054688 144.335938 L 878.417969 144.335938 L 878.417969 234 L 784.054688 234 Z M 784.054688 144.335938 " clip-rule="nonzero"/></clipPath><clipPath id="id14"><path d="M 276.292969 477.589844 L 339.203125 477.589844 L 339.203125 537.503906 L 276.292969 537.503906 Z M 276.292969 477.589844 " clip-rule="nonzero"/></clipPath><clipPath id="id15"><path d="M 160.351562 183.269531 L 307.886719 183.269531 L 307.886719 323.316406 L 160.351562 323.316406 Z M 160.351562 183.269531 " clip-rule="nonzero"/></clipPath><clipPath id="id16"><path d="M 915.429688 406.199219 L 1039.003906 406.199219 L 1039.003906 523.78125 L 915.429688 523.78125 Z M 915.429688 406.199219 " clip-rule="nonzero"/></clipPath><clipPath id="id17"><path d="M 1039.203125 0 L 1219.691406 0 L 1219.691406 171.503906 L 1039.203125 171.503906 Z M 1039.203125 0 " clip-rule="nonzero"/></clipPath><clipPath id="id18"><path d="M 1039.203125 0 L 1219.691406 0 L 1219.691406 171 L 1039.203125 171 Z M 1039.203125 0 " clip-rule="nonzero"/></clipPath><clipPath id="id19"><path d="M 793.015625 580.171875 L 905.351562 580.171875 L 905.351562 687.265625 L 793.015625 687.265625 Z M 793.015625 580.171875 " clip-rule="nonzero"/></clipPath><clipPath id="id20"><path d="M 899.269531 523.265625 L 974.160156 523.265625 L 974.160156 594.410156 L 899.269531 594.410156 Z M 899.269531 523.265625 " clip-rule="nonzero"/></clipPath><clipPath id="id21"><path d="M 899.269531 523.265625 L 974 523.265625 L 974 594.410156 L 899.269531 594.410156 Z M 899.269531 523.265625 " clip-rule="nonzero"/></clipPath><clipPath id="id22"><path d="M 924 253.460938 L 998.71875 253.460938 L 998.71875 324.605469 L 924 324.605469 Z M 924 253.460938 " clip-rule="nonzero"/></clipPath><clipPath id="id23"><path d="M 923.828125 253.460938 L 998.71875 253.460938 L 998.71875 324.605469 L 923.828125 324.605469 Z M 923.828125 253.460938 " clip-rule="nonzero"/></clipPath><clipPath id="id24"><path d="M 47.699219 292.351562 L 160.039062 292.351562 L 160.039062 399.445312 L 47.699219 399.445312 Z M 47.699219 292.351562 " clip-rule="nonzero"/></clipPath><clipPath id="id25"><path d="M 117.351562 430.179688 L 229.6875 430.179688 L 229.6875 537.273438 L 117.351562 537.273438 Z M 117.351562 430.179688 " clip-rule="nonzero"/></clipPath><clipPath id="id26"><path d="M 269.273438 32 L 393.59375 32 L 393.59375 149.980469 L 269.273438 149.980469 Z M 269.273438 32 " clip-rule="nonzero"/></clipPath><clipPath id="id27"><path d="M 269.273438 31.648438 L 393.59375 31.648438 L 393.59375 149.980469 L 269.273438 149.980469 Z M 269.273438 31.648438 " clip-rule="nonzero"/></clipPath></defs><g clip-path="url(#id1)"><path fill="#ffffff" d="M 0.886719 0 L 1229.113281 0 L 1229.113281 699.492188 L 0.886719 699.492188 Z M 0.886719 0 " fill-opacity="1" fill-rule="nonzero"/><path fill="#ffffff" d="M 0.886719 0 L 1229.113281 0 L 1229.113281 692 L 0.886719 692 Z M 0.886719 0 " fill-opacity="1" fill-rule="nonzero"/><path fill="#18bc9c" d="M 0.886719 0 L 1229.113281 0 L 1229.113281 692 L 0.886719 692 Z M 0.886719 0 " fill-opacity="1" fill-rule="nonzero"/></g><g clip-path="url(#id2)"><path fill="#ffffff" d="M 1114.664062 292.054688 L 1142.46875 348.289062 L 1204.671875 357.308594 L 1159.648438 401.109375 L 1170.3125 462.914062 L 1114.664062 433.738281 L 1058.976562 462.914062 L 1069.601562 401.109375 L 1024.617188 357.308594 L 1086.820312 348.289062 Z M 1114.664062 292.054688 " fill-opacity="1" fill-rule="nonzero"/></g><g clip-path="url(#id3)"><path fill="#ffffff" d="M 1114.230469 291.515625 L 1142.074219 347.75 L 1204.277344 356.769531 L 1159.253906 400.570312 L 1169.878906 462.375 L 1114.230469 433.199219 L 1058.582031 462.375 L 1069.207031 400.570312 L 1024.183594 356.769531 L 1086.386719 347.75 Z M 1114.230469 291.515625 " fill-opacity="1" fill-rule="nonzero"/><path fill="#ffffff" d="M 1114.230469 291.515625 L 1142.074219 347.75 L 1204.277344 356.769531 L 1159.253906 400.570312 L 1169.878906 462.375 L 1114.230469 433.199219 L 1058.582031 462.375 L 1069.207031 400.570312 L 1024.183594 356.769531 L 1086.386719 347.75 Z M 1114.230469 291.515625 " fill-opacity="1" fill-rule="nonzero"/><path fill="#ffffff" d="M 1114.230469 291.515625 L 1142.074219 347.75 L 1204.277344 356.769531 L 1159.253906 400.570312 L 1169.878906 462.375 L 1114.230469 433.199219 L 1058.582031 462.375 L 1069.207031 400.570312 L 1024.183594 356.769531 L 1086.386719 347.75 Z M 1114.230469 291.515625 " fill-opacity="1" fill-rule="nonzero"/></g><g clip-path="url(#id4)"><path fill="#ffffff" d="M 1133.242188 676.292969 L 1091.585938 654.457031 L 1049.929688 676.292969 L 1057.886719 630.039062 L 1024.183594 597.257812 L 1070.746094 590.507812 L 1091.585938 548.425781 L 1112.425781 590.507812 L 1158.988281 597.257812 L 1125.289062 630.039062 Z M 1031.921875 599.785156 L 1061.742188 628.777344 L 1054.703125 669.730469 L 1091.585938 650.394531 L 1128.441406 669.730469 L 1121.40625 628.777344 L 1151.25 599.785156 L 1110.027344 593.816406 L 1091.585938 556.546875 L 1073.144531 593.789062 Z M 1031.921875 599.785156 " fill-opacity="1" fill-rule="nonzero"/></g><g clip-path="url(#id5)"><path fill="#ffffff" d="M 94.425781 521.238281 L 113.578125 560.039062 L 156.425781 566.261719 L 125.414062 596.484375 L 132.757812 639.125 L 94.425781 618.996094 L 56.070312 639.125 L 63.386719 596.484375 L 32.402344 566.261719 L 75.246094 560.039062 Z M 94.425781 521.238281 " fill-opacity="1" fill-rule="nonzero"/></g><g clip-path="url(#id6)"><path fill="#ffffff" d="M 94.128906 520.867188 L 113.304688 559.667969 L 156.152344 565.890625 L 125.140625 596.113281 L 132.457031 638.753906 L 94.128906 618.621094 L 55.796875 638.753906 L 63.117188 596.113281 L 32.105469 565.890625 L 74.949219 559.667969 Z M 94.128906 520.867188 " fill-opacity="1" fill-rule="nonzero"/><path fill="#ffffff" d="M 94.128906 520.867188 L 113.304688 559.667969 L 156.152344 565.890625 L 125.140625 596.113281 L 132.457031 638.753906 L 94.128906 618.621094 L 55.796875 638.753906 L 63.117188 596.113281 L 32.105469 565.890625 L 74.949219 559.667969 Z M 94.128906 520.867188 " fill-opacity="1" fill-rule="nonzero"/><path fill="#ffffff" d="M 94.128906 520.867188 L 113.304688 559.667969 L 156.152344 565.890625 L 125.140625 596.113281 L 132.457031 638.753906 L 94.128906 618.621094 L 55.796875 638.753906 L 63.117188 596.113281 L 32.105469 565.890625 L 74.949219 559.667969 Z M 94.128906 520.867188 " fill-opacity="1" fill-rule="nonzero"/></g><g clip-path="url(#id7)"><path fill="#ffffff" d="M 869.210938 127.742188 L 831.027344 107.695312 L 792.84375 127.742188 L 800.132812 85.277344 L 769.238281 55.183594 L 811.921875 48.984375 L 831.027344 10.347656 L 850.128906 48.984375 L 892.8125 55.183594 L 861.917969 85.277344 Z M 776.332031 57.503906 L 803.667969 84.117188 L 797.214844 121.714844 L 831.027344 103.964844 L 864.808594 121.714844 L 858.359375 84.117188 L 885.71875 57.503906 L 847.929688 52.023438 L 831.027344 17.804688 L 814.121094 51.996094 Z M 776.332031 57.503906 " fill-opacity="1" fill-rule="nonzero"/></g><g clip-path="url(#id8)"><path fill="#ffffff" d="M 980.792969 206.683594 L 952.097656 191.617188 L 923.402344 206.683594 L 928.882812 174.769531 L 905.664062 152.152344 L 937.742188 147.496094 L 952.097656 118.460938 L 966.457031 147.496094 L 998.53125 152.152344 L 975.316406 174.769531 Z M 910.996094 153.898438 L 931.539062 173.898438 L 926.691406 202.15625 L 952.097656 188.816406 L 977.488281 202.15625 L 972.640625 173.898438 L 993.199219 153.898438 L 964.800781 149.777344 L 952.097656 124.0625 L 939.394531 149.761719 Z M 910.996094 153.898438 " fill-opacity="1" fill-rule="nonzero"/></g><g clip-path="url(#id9)"><path fill="#ffffff" d="M 309.800781 665.828125 L 275.089844 647.570312 L 240.375 665.828125 L 247.003906 627.152344 L 218.917969 599.738281 L 257.722656 594.09375 L 275.089844 558.902344 L 292.457031 594.09375 L 331.257812 599.738281 L 303.171875 627.152344 Z M 225.367188 601.851562 L 250.21875 626.09375 L 244.351562 660.339844 L 275.089844 644.171875 L 305.800781 660.339844 L 299.9375 626.09375 L 324.808594 601.851562 L 290.457031 596.859375 L 275.089844 565.695312 L 259.722656 596.839844 Z M 225.367188 601.851562 " fill-opacity="1" fill-rule="nonzero"/></g><g clip-path="url(#id10)"><path fill="#ffffff" d="M 104.371094 32.242188 L 132.179688 88.476562 L 194.382812 97.496094 L 149.359375 141.296875 L 160.019531 203.101562 L 104.371094 173.921875 L 48.6875 203.101562 L 59.3125 141.296875 L 14.324219 97.496094 L 76.53125 88.476562 Z M 104.371094 32.242188 " fill-opacity="1" fill-rule="nonzero"/></g><g clip-path="url(#id11)"><path fill="#ffffff" d="M 103.941406 31.703125 L 131.78125 87.9375 L 193.988281 96.957031 L 148.964844 140.757812 L 159.589844 202.5625 L 103.941406 173.382812 L 48.292969 202.5625 L 58.917969 140.757812 L 13.894531 96.957031 L 76.097656 87.9375 Z M 103.941406 31.703125 " fill-opacity="1" fill-rule="nonzero"/><path fill="#ffffff" d="M 103.941406 31.703125 L 131.78125 87.9375 L 193.988281 96.957031 L 148.964844 140.757812 L 159.589844 202.5625 L 103.941406 173.382812 L 48.292969 202.5625 L 58.917969 140.757812 L 13.894531 96.957031 L 76.097656 87.9375 Z M 103.941406 31.703125 " fill-opacity="1" fill-rule="nonzero"/><path fill="#ffffff" d="M 103.941406 31.703125 L 131.78125 87.9375 L 193.988281 96.957031 L 148.964844 140.757812 L 159.589844 202.5625 L 103.941406 173.382812 L 48.292969 202.5625 L 58.917969 140.757812 L 13.894531 96.957031 L 76.097656 87.9375 Z M 103.941406 31.703125 " fill-opacity="1" fill-rule="nonzero"/></g><g clip-path="url(#id12)"><path fill="#ffffff" d="M 831.359375 144.648438 L 845.898438 174.113281 L 878.417969 178.839844 L 854.878906 201.792969 L 860.453125 234.179688 L 831.359375 218.890625 L 802.246094 234.179688 L 807.800781 201.792969 L 784.28125 178.839844 L 816.804688 174.113281 Z M 831.359375 144.648438 " fill-opacity="1" fill-rule="nonzero"/></g><g clip-path="url(#id13)"><path fill="#ffffff" d="M 831.132812 144.363281 L 845.691406 173.832031 L 878.210938 178.558594 L 854.671875 201.511719 L 860.230469 233.894531 L 831.132812 218.605469 L 802.039062 233.894531 L 807.59375 201.511719 L 784.054688 178.558594 L 816.578125 173.832031 Z M 831.132812 144.363281 " fill-opacity="1" fill-rule="nonzero"/><path fill="#ffffff" d="M 831.132812 144.363281 L 845.691406 173.832031 L 878.210938 178.558594 L 854.671875 201.511719 L 860.230469 233.894531 L 831.132812 218.605469 L 802.039062 233.894531 L 807.59375 201.511719 L 784.054688 178.558594 L 816.578125 173.832031 Z M 831.132812 144.363281 " fill-opacity="1" fill-rule="nonzero"/><path fill="#ffffff" d="M 831.132812 144.363281 L 845.691406 173.832031 L 878.210938 178.558594 L 854.671875 201.511719 L 860.230469 233.894531 L 831.132812 218.605469 L 802.039062 233.894531 L 807.59375 201.511719 L 784.054688 178.558594 L 816.578125 173.832031 Z M 831.132812 144.363281 " fill-opacity="1" fill-rule="nonzero"/></g><g clip-path="url(#id14)"><path fill="#ffffff" d="M 307.828125 477.792969 L 317.523438 497.4375 L 339.203125 500.589844 L 323.511719 515.894531 L 327.226562 537.488281 L 307.828125 527.292969 L 288.421875 537.488281 L 292.125 515.894531 L 276.445312 500.589844 L 298.125 497.4375 Z M 307.828125 477.792969 " fill-opacity="1" fill-rule="nonzero"/><path fill="#ffffff" d="M 307.679688 477.601562 L 317.382812 497.25 L 339.066406 500.402344 L 323.371094 515.707031 L 327.074219 537.300781 L 307.679688 527.105469 L 288.28125 537.300781 L 291.984375 515.707031 L 276.292969 500.402344 L 297.972656 497.25 Z M 307.679688 477.601562 " fill-opacity="1" fill-rule="nonzero"/><path fill="#ffffff" d="M 307.679688 477.601562 L 317.382812 497.25 L 339.066406 500.402344 L 323.371094 515.707031 L 327.074219 537.300781 L 307.679688 527.105469 L 288.28125 537.300781 L 291.984375 515.707031 L 276.292969 500.402344 L 297.972656 497.25 Z M 307.679688 477.601562 " fill-opacity="1" fill-rule="nonzero"/><path fill="#ffffff" d="M 307.679688 477.601562 L 317.382812 497.25 L 339.066406 500.402344 L 323.371094 515.707031 L 327.074219 537.300781 L 307.679688 527.105469 L 288.28125 537.300781 L 291.984375 515.707031 L 276.292969 500.402344 L 297.972656 497.25 Z M 307.679688 477.601562 " fill-opacity="1" fill-rule="nonzero"/></g><g clip-path="url(#id15)"><path fill="#ffffff" d="M 279.707031 323.203125 L 234.117188 299.328125 L 188.527344 323.203125 L 197.234375 272.625 L 160.351562 236.78125 L 211.308594 229.398438 L 234.117188 183.378906 L 256.925781 229.398438 L 307.886719 236.78125 L 271.003906 272.625 Z M 168.816406 239.546875 L 201.453125 271.246094 L 193.753906 316.03125 L 234.117188 294.886719 L 274.453125 316.03125 L 266.753906 271.246094 L 299.417969 239.546875 L 254.300781 233.015625 L 234.117188 192.261719 L 213.933594 232.988281 Z M 168.816406 239.546875 " fill-opacity="1" fill-rule="nonzero"/></g><g clip-path="url(#id16)"><path fill="#ffffff" d="M 1015.402344 523.683594 L 977.21875 503.640625 L 939.035156 523.683594 L 946.324219 481.222656 L 915.429688 451.128906 L 958.113281 444.929688 L 977.21875 406.292969 L 996.320312 444.929688 L 1039.003906 451.128906 L 1008.109375 481.222656 Z M 922.523438 453.449219 L 949.859375 480.0625 L 943.40625 517.660156 L 977.21875 499.910156 L 1011 517.660156 L 1004.550781 480.0625 L 1031.910156 453.449219 L 994.121094 447.96875 L 977.21875 413.75 L 960.3125 447.941406 Z M 922.523438 453.449219 " fill-opacity="1" fill-rule="nonzero"/></g><g clip-path="url(#id17)"><path fill="#ffffff" d="M 1129.679688 0.589844 L 1157.488281 56.824219 L 1219.691406 65.84375 L 1174.667969 109.648438 L 1185.328125 171.449219 L 1129.679688 142.273438 L 1073.996094 171.449219 L 1084.621094 109.648438 L 1039.632812 65.84375 L 1101.839844 56.824219 Z M 1129.679688 0.589844 " fill-opacity="1" fill-rule="nonzero"/></g><g clip-path="url(#id18)"><path fill="#ffffff" d="M 1129.25 0.0507812 L 1157.089844 56.285156 L 1219.292969 65.304688 L 1174.273438 109.109375 L 1184.898438 170.910156 L 1129.25 141.734375 L 1073.597656 170.910156 L 1084.226562 109.109375 L 1039.203125 65.304688 L 1101.40625 56.285156 Z M 1129.25 0.0507812 " fill-opacity="1" fill-rule="nonzero"/><path fill="#ffffff" d="M 1129.25 0.0507812 L 1157.089844 56.285156 L 1219.292969 65.304688 L 1174.273438 109.109375 L 1184.898438 170.910156 L 1129.25 141.734375 L 1073.597656 170.910156 L 1084.226562 109.109375 L 1039.203125 65.304688 L 1101.40625 56.285156 Z M 1129.25 0.0507812 " fill-opacity="1" fill-rule="nonzero"/><path fill="#ffffff" d="M 1129.25 0.0507812 L 1157.089844 56.285156 L 1219.292969 65.304688 L 1174.273438 109.109375 L 1184.898438 170.910156 L 1129.25 141.734375 L 1073.597656 170.910156 L 1084.226562 109.109375 L 1039.203125 65.304688 L 1101.40625 56.285156 Z M 1129.25 0.0507812 " fill-opacity="1" fill-rule="nonzero"/></g><g clip-path="url(#id19)"><path fill="#ffffff" d="M 883.894531 687.179688 L 849.183594 668.921875 L 814.472656 687.179688 L 821.097656 648.503906 L 793.015625 621.09375 L 831.816406 615.449219 L 849.183594 580.257812 L 866.550781 615.449219 L 905.351562 621.09375 L 877.269531 648.503906 Z M 799.464844 623.207031 L 824.3125 647.445312 L 818.449219 681.695312 L 849.183594 665.527344 L 879.898438 681.695312 L 874.03125 647.445312 L 898.90625 623.207031 L 864.550781 618.214844 L 849.183594 587.046875 L 833.816406 618.191406 Z M 799.464844 623.207031 " fill-opacity="1" fill-rule="nonzero"/></g><g clip-path="url(#id20)"><path fill="#ffffff" d="M 936.8125 523.507812 L 948.351562 546.835938 L 974.160156 550.578125 L 955.480469 568.75 L 959.902344 594.390625 L 936.8125 582.285156 L 913.707031 594.390625 L 918.117188 568.75 L 899.449219 550.578125 L 925.257812 546.835938 Z M 936.8125 523.507812 " fill-opacity="1" fill-rule="nonzero"/></g><g clip-path="url(#id21)"><path fill="#ffffff" d="M 936.632812 523.285156 L 948.1875 546.613281 L 973.996094 550.355469 L 955.316406 568.527344 L 959.722656 594.164062 L 936.632812 582.0625 L 913.542969 594.164062 L 917.949219 568.527344 L 899.269531 550.355469 L 925.078125 546.613281 Z M 936.632812 523.285156 " fill-opacity="1" fill-rule="nonzero"/><path fill="#ffffff" d="M 936.632812 523.285156 L 948.1875 546.613281 L 973.996094 550.355469 L 955.316406 568.527344 L 959.722656 594.164062 L 936.632812 582.0625 L 913.542969 594.164062 L 917.949219 568.527344 L 899.269531 550.355469 L 925.078125 546.613281 Z M 936.632812 523.285156 " fill-opacity="1" fill-rule="nonzero"/><path fill="#ffffff" d="M 936.632812 523.285156 L 948.1875 546.613281 L 973.996094 550.355469 L 955.316406 568.527344 L 959.722656 594.164062 L 936.632812 582.0625 L 913.542969 594.164062 L 917.949219 568.527344 L 899.269531 550.355469 L 925.078125 546.613281 Z M 936.632812 523.285156 " fill-opacity="1" fill-rule="nonzero"/></g><g clip-path="url(#id22)"><path fill="#ffffff" d="M 961.371094 253.703125 L 972.90625 277.035156 L 998.71875 280.773438 L 980.035156 298.945312 L 984.460938 324.585938 L 961.371094 312.480469 L 938.265625 324.585938 L 942.671875 298.945312 L 924.007812 280.773438 L 949.816406 277.035156 Z M 961.371094 253.703125 " fill-opacity="1" fill-rule="nonzero"/></g><g clip-path="url(#id23)"><path fill="#ffffff" d="M 961.191406 253.480469 L 972.742188 276.808594 L 998.554688 280.550781 L 979.871094 298.722656 L 984.28125 324.359375 L 961.191406 312.257812 L 938.101562 324.359375 L 942.507812 298.722656 L 923.828125 280.550781 L 949.636719 276.808594 Z M 961.191406 253.480469 " fill-opacity="1" fill-rule="nonzero"/><path fill="#ffffff" d="M 961.191406 253.480469 L 972.742188 276.808594 L 998.554688 280.550781 L 979.871094 298.722656 L 984.28125 324.359375 L 961.191406 312.257812 L 938.101562 324.359375 L 942.507812 298.722656 L 923.828125 280.550781 L 949.636719 276.808594 Z M 961.191406 253.480469 " fill-opacity="1" fill-rule="nonzero"/><path fill="#ffffff" d="M 961.191406 253.480469 L 972.742188 276.808594 L 998.554688 280.550781 L 979.871094 298.722656 L 984.28125 324.359375 L 961.191406 312.257812 L 938.101562 324.359375 L 942.507812 298.722656 L 923.828125 280.550781 L 949.636719 276.808594 Z M 961.191406 253.480469 " fill-opacity="1" fill-rule="nonzero"/></g><g clip-path="url(#id24)"><path fill="#ffffff" d="M 138.582031 399.359375 L 103.867188 381.101562 L 69.15625 399.359375 L 75.785156 360.683594 L 47.699219 333.273438 L 86.5 327.628906 L 103.867188 292.4375 L 121.234375 327.628906 L 160.039062 333.273438 L 131.953125 360.683594 Z M 54.148438 335.386719 L 78.996094 359.625 L 73.132812 393.875 L 103.867188 377.707031 L 134.582031 393.875 L 128.71875 359.625 L 153.589844 335.386719 L 119.234375 330.394531 L 103.867188 299.226562 L 88.5 330.371094 Z M 54.148438 335.386719 " fill-opacity="1" fill-rule="nonzero"/></g><g clip-path="url(#id25)"><path fill="#ffffff" d="M 208.234375 537.1875 L 173.519531 518.929688 L 138.808594 537.1875 L 145.4375 498.511719 L 117.351562 471.101562 L 156.152344 465.457031 L 173.519531 430.265625 L 190.886719 465.457031 L 229.6875 471.101562 L 201.605469 498.511719 Z M 123.800781 473.214844 L 148.648438 497.453125 L 142.785156 531.703125 L 173.519531 515.535156 L 204.234375 531.703125 L 198.371094 497.453125 L 223.242188 473.214844 L 188.886719 468.222656 L 173.519531 437.054688 L 158.152344 468.199219 Z M 123.800781 473.214844 " fill-opacity="1" fill-rule="nonzero"/></g><g clip-path="url(#id26)"><path fill="#ffffff" d="M 331.59375 32.058594 L 350.746094 70.855469 L 393.59375 77.078125 L 362.582031 107.300781 L 369.925781 149.945312 L 331.59375 129.8125 L 293.238281 149.945312 L 300.554688 107.300781 L 269.570312 77.078125 L 312.414062 70.855469 Z M 331.59375 32.058594 " fill-opacity="1" fill-rule="nonzero"/></g><g clip-path="url(#id27)"><path fill="#ffffff" d="M 331.296875 31.683594 L 350.472656 70.484375 L 393.320312 76.707031 L 362.308594 106.929688 L 369.625 149.570312 L 331.296875 129.441406 L 292.964844 149.570312 L 300.285156 106.929688 L 269.273438 76.707031 L 312.117188 70.484375 Z M 331.296875 31.683594 " fill-opacity="1" fill-rule="nonzero"/><path fill="#ffffff" d="M 331.296875 31.683594 L 350.472656 70.484375 L 393.320312 76.707031 L 362.308594 106.929688 L 369.625 149.570312 L 331.296875 129.441406 L 292.964844 149.570312 L 300.285156 106.929688 L 269.273438 76.707031 L 312.117188 70.484375 Z M 331.296875 31.683594 " fill-opacity="1" fill-rule="nonzero"/><path fill="#ffffff" d="M 331.296875 31.683594 L 350.472656 70.484375 L 393.320312 76.707031 L 362.308594 106.929688 L 369.625 149.570312 L 331.296875 129.441406 L 292.964844 149.570312 L 300.285156 106.929688 L 269.273438 76.707031 L 312.117188 70.484375 Z M 331.296875 31.683594 " fill-opacity="1" fill-rule="nonzero"/></g></svg>