<svg xmlns="http://www.w3.org/2000/svg" xmlns:xlink="http://www.w3.org/1999/xlink" width="1640" zoomAndPan="magnify" viewBox="0 0 1230 693.000001" height="924" preserveAspectRatio="xMidYMid meet" version="1.0"><defs><clipPath id="id1"><path d="M 0.886719 0 L 1229.113281 0 L 1229.113281 692 L 0.886719 692 Z M 0.886719 0 " clip-rule="nonzero"/></clipPath><clipPath id="id2"><path d="M 498.683594 241 L 540 241 L 540 277 L 498.683594 277 Z M 498.683594 241 " clip-rule="nonzero"/></clipPath><clipPath id="id3"><path d="M 973 0 L 986.226562 0 L 986.226562 14 L 973 14 Z M 973 0 " clip-rule="nonzero"/></clipPath><clipPath id="id4"><path d="M 0.886719 253 L 42 253 L 42 289 L 0.886719 289 Z M 0.886719 253 " clip-rule="nonzero"/></clipPath><clipPath id="id5"><path d="M 475 12 L 488.316406 12 L 488.316406 26 L 475 26 Z M 475 12 " clip-rule="nonzero"/></clipPath><clipPath id="id6"><path d="M 460 139 L 488.316406 139 L 488.316406 178 L 460 178 Z M 460 139 " clip-rule="nonzero"/></clipPath><clipPath id="id7"><path d="M 996.714844 241 L 1038 241 L 1038 277 L 996.714844 277 Z M 996.714844 241 " clip-rule="nonzero"/></clipPath><clipPath id="id8"><path d="M 1206 135 L 1229.113281 135 L 1229.113281 175 L 1206 175 Z M 1206 135 " clip-rule="nonzero"/></clipPath><clipPath id="id9"><path d="M 1209 0 L 1229.113281 0 L 1229.113281 36 L 1209 36 Z M 1209 0 " clip-rule="nonzero"/></clipPath><clipPath id="id10"><path d="M 1226 234 L 1229.113281 234 L 1229.113281 264 L 1226 264 Z M 1226 234 " clip-rule="nonzero"/></clipPath><clipPath id="id11"><path d="M 1216 230 L 1229.113281 230 L 1229.113281 260 L 1216 260 Z M 1216 230 " clip-rule="nonzero"/></clipPath><clipPath id="id12"><path d="M 498.621094 645 L 540 645 L 540 680.316406 L 498.621094 680.316406 Z M 498.621094 645 " clip-rule="nonzero"/></clipPath><clipPath id="id13"><path d="M 623 403.21875 L 637 403.21875 L 637 417 L 623 417 Z M 623 403.21875 " clip-rule="nonzero"/></clipPath><clipPath id="id14"><path d="M 848 645 L 890 645 L 890 680.316406 L 848 680.316406 Z M 848 645 " clip-rule="nonzero"/></clipPath><clipPath id="id15"><path d="M 711 403.21875 L 753 403.21875 L 753 439 L 711 439 Z M 711 403.21875 " clip-rule="nonzero"/></clipPath><clipPath id="id16"><path d="M 973 403.21875 L 986.167969 403.21875 L 986.167969 417 L 973 417 Z M 973 403.21875 " clip-rule="nonzero"/></clipPath><clipPath id="id17"><path d="M 0.886719 657 L 42 657 L 42 692 L 0.886719 692 Z M 0.886719 657 " clip-rule="nonzero"/></clipPath><clipPath id="id18"><path d="M 125 415.199219 L 139 415.199219 L 139 429 L 125 429 Z M 125 415.199219 " clip-rule="nonzero"/></clipPath><clipPath id="id19"><path d="M 350 657 L 392 657 L 392 692 L 350 692 Z M 350 657 " clip-rule="nonzero"/></clipPath><clipPath id="id20"><path d="M 213 415.199219 L 255 415.199219 L 255 451 L 213 451 Z M 213 415.199219 " clip-rule="nonzero"/></clipPath><clipPath id="id21"><path d="M 475 415.199219 L 488.253906 415.199219 L 488.253906 429 L 475 429 Z M 475 415.199219 " clip-rule="nonzero"/></clipPath><clipPath id="id22"><path d="M 460 542 L 488.253906 542 L 488.253906 582 L 460 582 Z M 460 542 " clip-rule="nonzero"/></clipPath><clipPath id="id23"><path d="M 996.652344 645 L 1038 645 L 1038 680.316406 L 996.652344 680.316406 Z M 996.652344 645 " clip-rule="nonzero"/></clipPath><clipPath id="id24"><path d="M 1121 403.21875 L 1135 403.21875 L 1135 417 L 1121 417 Z M 1121 403.21875 " clip-rule="nonzero"/></clipPath><clipPath id="id25"><path d="M 1206 538 L 1229.113281 538 L 1229.113281 579 L 1206 579 Z M 1206 538 " clip-rule="nonzero"/></clipPath><clipPath id="id26"><path d="M 1209 403.21875 L 1229.113281 403.21875 L 1229.113281 439 L 1209 439 Z M 1209 403.21875 " clip-rule="nonzero"/></clipPath><clipPath id="id27"><path d="M 1226 637 L 1229.113281 637 L 1229.113281 667 L 1226 667 Z M 1226 637 " clip-rule="nonzero"/></clipPath><clipPath id="id28"><path d="M 1216 634 L 1229.113281 634 L 1229.113281 664 L 1216 664 Z M 1216 634 " clip-rule="nonzero"/></clipPath></defs><g clip-path="url(#id1)"><path fill="#ffffff" d="M 0.886719 0 L 1229.113281 0 L 1229.113281 699.492188 L 0.886719 699.492188 Z M 0.886719 0 " fill-opacity="1" fill-rule="nonzero"/><path fill="#ffffff" d="M 0.886719 0 L 1229.113281 0 L 1229.113281 692 L 0.886719 692 Z M 0.886719 0 " fill-opacity="1" fill-rule="nonzero"/><path fill="#18bc9c" d="M 0.886719 0 L 1229.113281 0 L 1229.113281 692 L 0.886719 692 Z M 0.886719 0 " fill-opacity="1" fill-rule="nonzero"/></g><path fill="#479ba0" d="M 552.6875 30.824219 C 549.765625 15.949219 536.15625 6.84375 521.355469 8.90625 C 506.363281 10.996094 497.492188 26.085938 499.460938 40.269531 C 499.65625 41.691406 501.304688 42.183594 502.484375 41.988281 C 518.644531 39.277344 534.808594 36.566406 550.96875 33.851562 C 554.089844 33.328125 552.761719 28.589844 549.664062 29.105469 C 533.5 31.820312 517.339844 34.53125 501.179688 37.242188 C 502.183594 37.816406 503.191406 38.390625 504.199219 38.960938 C 502.492188 26.660156 510.691406 16.007812 522.664062 13.652344 C 534.835938 11.257812 545.695312 20.664062 547.945312 32.132812 C 548.558594 35.246094 553.292969 33.925781 552.6875 30.824219 " fill-opacity="1" fill-rule="nonzero"/><path fill="#479ba0" d="M 579 184.035156 C 571 180.441406 562.992188 176.847656 554.992188 173.257812 C 552.121094 171.976562 549.621094 176.210938 552.507812 177.507812 C 560.511719 181.101562 568.515625 184.683594 576.519531 188.277344 C 579.390625 189.566406 581.894531 185.324219 579 184.035156 " fill-opacity="1" fill-rule="nonzero"/><path fill="#479ba0" d="M 575.757812 174.328125 C 567.75 170.738281 559.746094 167.144531 551.742188 163.550781 C 548.875 162.261719 546.371094 166.503906 549.257812 167.804688 C 557.261719 171.394531 565.269531 174.980469 573.269531 178.570312 C 576.140625 179.859375 578.644531 175.617188 575.757812 174.328125 " fill-opacity="1" fill-rule="nonzero"/><path fill="#479ba0" d="M 569.601562 188.070312 C 561.59375 184.488281 553.59375 180.894531 545.589844 177.300781 C 542.71875 176.011719 540.214844 180.253906 543.101562 181.554688 C 551.109375 185.136719 559.113281 188.730469 567.117188 192.320312 C 569.988281 193.613281 572.488281 189.371094 569.601562 188.070312 " fill-opacity="1" fill-rule="nonzero"/><g clip-path="url(#id2)"><path fill="#834baa" d="M 536.605469 275.722656 C 542.777344 265.003906 539.644531 252.148438 529.433594 245.285156 C 519.175781 238.40625 505.535156 242.757812 499.03125 252.472656 C 498.269531 253.605469 498.832031 255.160156 499.914062 255.828125 C 511.023438 262.757812 522.132812 269.6875 533.238281 276.605469 C 535.941406 278.289062 538.40625 274.027344 535.722656 272.355469 C 524.613281 265.4375 513.503906 258.507812 502.394531 251.585938 C 502.6875 252.707031 502.984375 253.832031 503.277344 254.953125 C 508.644531 246.941406 518.65625 244.746094 526.953125 249.539062 C 535.292969 254.351562 536.898438 265.355469 532.355469 273.242188 C 530.769531 275.996094 535.023438 278.46875 536.605469 275.722656 " fill-opacity="1" fill-rule="nonzero"/></g><path fill="#834baa" d="M 544.382812 101.628906 C 544.382812 105.242188 541.464844 108.164062 537.859375 108.164062 C 534.257812 108.164062 531.339844 105.242188 531.339844 101.628906 C 531.339844 98.027344 534.257812 95.105469 537.859375 95.105469 C 541.464844 95.105469 544.382812 98.027344 544.382812 101.628906 " fill-opacity="1" fill-rule="nonzero"/><path fill="#c62f6a" d="M 609.351562 139.867188 C 612.578125 145.960938 615.792969 152.066406 619.015625 158.148438 C 620.894531 161.699219 622.519531 165.097656 626.84375 165.714844 C 634.058594 166.761719 638.328125 159.457031 635.683594 153.34375 C 632.980469 147.082031 629.203125 141.089844 626.007812 135.066406 C 624.140625 131.511719 622.519531 128.117188 618.191406 127.488281 C 610.976562 126.453125 606.707031 133.746094 609.351562 139.867188 C 610.609375 142.78125 614.839844 140.261719 613.601562 137.386719 C 612.507812 134.878906 614.101562 133.078125 616.410156 132.386719 C 619.429688 131.472656 620.746094 135.605469 621.769531 137.546875 C 624.996094 143.640625 628.21875 149.730469 631.433594 155.824219 C 632.734375 158.265625 630.785156 160.175781 628.625 160.824219 C 625.605469 161.730469 624.289062 157.605469 623.265625 155.667969 C 620.039062 149.574219 616.816406 143.480469 613.601562 137.386719 C 612.113281 134.582031 607.867188 137.0625 609.351562 139.867188 " fill-opacity="1" fill-rule="nonzero"/><path fill="#c62f6a" d="M 636.714844 6.636719 C 636.714844 10.246094 633.785156 13.167969 630.1875 13.167969 C 626.589844 13.167969 623.667969 10.246094 623.667969 6.636719 C 623.667969 3.035156 626.589844 0.109375 630.1875 0.109375 C 633.785156 0.109375 636.714844 3.035156 636.714844 6.636719 " fill-opacity="1" fill-rule="nonzero"/><path fill="#eba94a" d="M 608.988281 43.628906 C 602.792969 49.851562 596.605469 56.070312 590.414062 62.292969 C 588.175781 64.542969 591.648438 68.019531 593.886719 65.773438 C 600.082031 59.550781 606.273438 53.328125 612.460938 47.113281 C 614.699219 44.859375 611.230469 41.378906 608.988281 43.628906 " fill-opacity="1" fill-rule="nonzero"/><path fill="#eba94a" d="M 598.773438 43.234375 C 592.578125 49.449219 586.386719 55.671875 580.195312 61.894531 C 577.957031 64.140625 581.433594 67.621094 583.671875 65.371094 C 589.863281 59.152344 596.054688 52.929688 602.242188 46.714844 C 604.484375 44.460938 601.003906 40.980469 598.773438 43.234375 " fill-opacity="1" fill-rule="nonzero"/><path fill="#eba94a" d="M 609.429688 53.863281 C 603.238281 60.085938 597.050781 66.308594 590.855469 72.527344 C 588.617188 74.777344 592.089844 78.257812 594.328125 76.007812 C 600.523438 69.785156 606.71875 63.566406 612.910156 57.34375 C 615.144531 55.09375 611.671875 51.613281 609.429688 53.863281 " fill-opacity="1" fill-rule="nonzero"/><path fill="#eba94a" d="M 622.683594 233.210938 C 622.683594 236.8125 619.765625 239.734375 616.167969 239.734375 C 612.558594 239.734375 609.648438 236.8125 609.648438 233.210938 C 609.648438 229.597656 612.558594 226.675781 616.167969 226.675781 C 619.765625 226.675781 622.683594 229.597656 622.683594 233.210938 " fill-opacity="1" fill-rule="nonzero"/><path fill="#479ba0" d="M 708.675781 159.210938 C 715.046875 172.410156 730.414062 178.355469 743.953125 172.675781 C 757.699219 166.925781 763.628906 150.589844 757.996094 137.101562 C 757.335938 135.539062 755.960938 134.929688 754.386719 135.636719 C 739.441406 142.378906 724.507812 149.113281 709.5625 155.84375 C 706.671875 157.144531 709.179688 161.386719 712.039062 160.097656 C 726.984375 153.363281 741.917969 146.621094 756.863281 139.890625 C 755.664062 139.398438 754.457031 138.90625 753.253906 138.414062 C 757.917969 149.574219 753.933594 161.710938 743.277344 167.585938 C 731.949219 173.847656 718.253906 167.773438 712.925781 156.730469 C 711.546875 153.867188 707.300781 156.367188 708.675781 159.210938 " fill-opacity="1" fill-rule="nonzero"/><path fill="#479ba0" d="M 685.738281 101.117188 C 694.441406 99.996094 703.140625 98.875 711.84375 97.75 C 714.941406 97.351562 714.980469 92.421875 711.84375 92.828125 C 703.140625 93.953125 694.441406 95.074219 685.738281 96.191406 C 682.640625 96.59375 682.601562 101.519531 685.738281 101.117188 " fill-opacity="1" fill-rule="nonzero"/><path fill="#479ba0" d="M 693.574219 107.691406 C 702.277344 106.570312 710.96875 105.449219 719.667969 104.324219 C 722.765625 103.933594 722.804688 99 719.667969 99.40625 C 710.96875 100.527344 702.277344 101.648438 693.574219 102.769531 C 690.476562 103.175781 690.4375 108.097656 693.574219 107.691406 " fill-opacity="1" fill-rule="nonzero"/><path fill="#479ba0" d="M 691.648438 92.75 C 700.347656 91.628906 709.050781 90.507812 717.75 89.382812 C 720.847656 88.988281 720.886719 84.058594 717.75 84.460938 C 709.050781 85.585938 700.347656 86.707031 691.648438 87.832031 C 688.550781 88.230469 688.511719 93.15625 691.648438 92.75 " fill-opacity="1" fill-rule="nonzero"/><path fill="#479ba0" d="M 902.203125 30.824219 C 899.28125 15.949219 885.664062 6.84375 870.867188 8.90625 C 855.875 10.996094 847.003906 26.085938 848.972656 40.269531 C 849.167969 41.691406 850.820312 42.183594 852 41.988281 C 868.164062 39.277344 884.316406 36.566406 900.480469 33.851562 C 903.609375 33.328125 902.273438 28.589844 899.175781 29.105469 C 883.011719 31.820312 866.855469 34.53125 850.691406 37.242188 C 851.695312 37.816406 852.707031 38.390625 853.710938 38.960938 C 852.007812 26.660156 860.210938 16.007812 872.175781 13.652344 C 884.347656 11.257812 895.210938 20.664062 897.464844 32.132812 C 898.074219 35.246094 902.800781 33.925781 902.203125 30.824219 " fill-opacity="1" fill-rule="nonzero"/><path fill="#479ba0" d="M 928.523438 184.035156 C 920.511719 180.441406 912.507812 176.847656 904.503906 173.257812 C 901.640625 171.976562 899.136719 176.210938 902.027344 177.507812 C 910.027344 181.101562 918.03125 184.683594 926.035156 188.277344 C 928.90625 189.566406 931.402344 185.324219 928.523438 184.035156 " fill-opacity="1" fill-rule="nonzero"/><path fill="#479ba0" d="M 925.269531 174.328125 L 901.257812 163.550781 C 898.386719 162.261719 895.878906 166.503906 898.78125 167.804688 C 906.773438 171.394531 914.789062 174.980469 922.792969 178.570312 C 925.652344 179.859375 928.160156 175.617188 925.269531 174.328125 " fill-opacity="1" fill-rule="nonzero"/><path fill="#479ba0" d="M 919.113281 188.070312 C 911.109375 184.488281 903.105469 180.894531 895.105469 177.300781 C 892.234375 176.011719 889.734375 180.253906 892.617188 181.554688 C 900.621094 185.136719 908.632812 188.730469 916.636719 192.320312 C 919.496094 193.613281 922.003906 189.371094 919.113281 188.070312 " fill-opacity="1" fill-rule="nonzero"/><path fill="#834baa" d="M 886.117188 275.722656 C 892.292969 265.003906 889.164062 252.148438 878.949219 245.285156 C 868.683594 238.40625 855.046875 242.757812 848.546875 252.472656 C 847.78125 253.605469 848.34375 255.160156 849.421875 255.828125 C 860.535156 262.757812 871.644531 269.6875 882.753906 276.605469 C 885.457031 278.289062 887.917969 274.027344 885.230469 272.355469 C 874.132812 265.4375 863.023438 258.507812 851.910156 251.585938 L 852.796875 254.953125 C 858.15625 246.941406 868.171875 244.746094 876.460938 249.539062 C 884.808594 254.351562 886.414062 265.355469 881.871094 273.242188 C 880.285156 275.996094 884.535156 278.46875 886.117188 275.722656 " fill-opacity="1" fill-rule="nonzero"/><path fill="#834baa" d="M 749.539062 34.460938 C 755.703125 23.746094 752.578125 10.886719 742.363281 4.03125 C 732.105469 -2.851562 718.46875 1.5 711.96875 11.207031 C 711.203125 12.347656 711.765625 13.902344 712.84375 14.578125 C 723.957031 21.496094 735.066406 28.421875 746.175781 35.347656 C 748.871094 37.027344 751.339844 32.773438 748.652344 31.09375 C 737.542969 24.175781 726.433594 17.25 715.324219 10.324219 C 715.617188 11.449219 715.914062 12.570312 716.207031 13.691406 C 721.578125 5.679688 731.585938 3.492188 739.882812 8.28125 C 748.230469 13.097656 749.835938 24.097656 745.292969 31.980469 C 743.707031 34.730469 747.957031 37.210938 749.539062 34.460938 " fill-opacity="1" fill-rule="nonzero"/><path fill="#834baa" d="M 893.894531 101.628906 C 893.894531 105.242188 890.972656 108.164062 887.375 108.164062 C 883.765625 108.164062 880.855469 105.242188 880.855469 101.628906 C 880.855469 98.027344 883.765625 95.105469 887.375 95.105469 C 890.972656 95.105469 893.894531 98.027344 893.894531 101.628906 " fill-opacity="1" fill-rule="nonzero"/><path fill="#834baa" d="M 681.824219 190.195312 C 681.824219 193.808594 678.90625 196.730469 675.304688 196.730469 C 671.707031 196.730469 668.789062 193.808594 668.789062 190.195312 C 668.789062 186.59375 671.707031 183.671875 675.304688 183.671875 C 678.90625 183.671875 681.824219 186.59375 681.824219 190.195312 " fill-opacity="1" fill-rule="nonzero"/><path fill="#c62f6a" d="M 790.695312 51.96875 C 786.222656 57.214844 781.757812 62.457031 777.285156 67.703125 C 774.914062 70.476562 771.679688 73.679688 772.851562 77.746094 C 774.769531 84.441406 782.46875 86.875 787.492188 81.882812 C 792.328125 77.082031 796.488281 71.332031 800.910156 66.148438 C 803.28125 63.375 806.515625 60.171875 805.347656 56.105469 C 803.429688 49.417969 795.730469 46.972656 790.695312 51.96875 C 788.445312 54.207031 791.925781 57.6875 794.175781 55.449219 C 796.222656 53.414062 798.652344 53.921875 800.195312 56.25 C 802.023438 58.984375 797.765625 62.28125 796.210938 64.101562 C 792.152344 68.867188 788.082031 73.636719 784.019531 78.402344 C 782.113281 80.636719 779.449219 79.785156 778.003906 77.601562 C 776.175781 74.863281 780.433594 71.570312 781.984375 69.75 C 786.046875 64.984375 790.105469 60.214844 794.175781 55.449219 C 796.222656 53.050781 792.761719 49.550781 790.695312 51.96875 " fill-opacity="1" fill-rule="nonzero"/><path fill="#c62f6a" d="M 799.769531 206.289062 C 799.769531 209.890625 796.851562 212.816406 793.253906 212.816406 C 789.644531 212.816406 786.722656 209.890625 786.722656 206.289062 C 786.722656 202.6875 789.644531 199.761719 793.253906 199.761719 C 796.851562 199.761719 799.769531 202.6875 799.769531 206.289062 " fill-opacity="1" fill-rule="nonzero"/><g clip-path="url(#id3)"><path fill="#c62f6a" d="M 986.226562 6.636719 C 986.226562 10.246094 983.308594 13.167969 979.699219 13.167969 C 976.101562 13.167969 973.179688 10.246094 973.179688 6.636719 C 973.179688 3.035156 976.101562 0.109375 979.699219 0.109375 C 983.308594 0.109375 986.226562 3.035156 986.226562 6.636719 " fill-opacity="1" fill-rule="nonzero"/></g><path fill="#c62f6a" d="M 958.867188 139.867188 C 962.089844 145.960938 965.316406 152.066406 968.539062 158.148438 C 970.417969 161.699219 972.03125 165.097656 976.355469 165.714844 C 983.574219 166.761719 987.839844 159.457031 985.195312 153.34375 C 982.492188 147.082031 978.714844 141.089844 975.519531 135.066406 C 973.652344 131.511719 972.03125 128.117188 967.703125 127.488281 C 960.488281 126.453125 956.21875 133.746094 958.867188 139.867188 C 960.125 142.78125 964.351562 140.261719 963.113281 137.386719 C 962.023438 134.878906 963.613281 133.078125 965.925781 132.386719 C 968.953125 131.472656 970.261719 135.605469 971.285156 137.546875 L 980.957031 155.824219 C 982.246094 158.265625 980.300781 160.175781 978.136719 160.824219 C 975.117188 161.730469 973.800781 157.605469 972.777344 155.667969 C 969.554688 149.574219 966.335938 143.480469 963.113281 137.386719 C 961.628906 134.582031 957.378906 137.0625 958.867188 139.867188 " fill-opacity="1" fill-rule="nonzero"/><path fill="#eba94a" d="M 743.628906 259.324219 C 740.03125 251.320312 736.421875 243.320312 732.824219 235.304688 C 731.527344 232.414062 727.289062 234.921875 728.578125 237.785156 C 732.183594 245.800781 735.785156 253.800781 739.382812 261.8125 C 740.691406 264.699219 744.917969 262.195312 743.628906 259.324219 " fill-opacity="1" fill-rule="nonzero"/><path fill="#eba94a" d="M 747.640625 249.914062 C 744.042969 241.902344 740.445312 233.898438 736.835938 225.886719 C 735.539062 223.003906 731.300781 225.503906 732.589844 228.375 C 736.195312 236.378906 739.796875 244.390625 743.394531 252.394531 C 744.691406 255.289062 748.929688 252.777344 747.640625 249.914062 " fill-opacity="1" fill-rule="nonzero"/><path fill="#eba94a" d="M 733.914062 256.09375 C 730.316406 248.09375 726.71875 240.082031 723.121094 232.078125 C 721.8125 229.183594 717.585938 231.695312 718.871094 234.558594 C 722.472656 242.5625 726.070312 250.574219 729.679688 258.585938 C 730.976562 261.46875 735.214844 258.96875 733.914062 256.09375 " fill-opacity="1" fill-rule="nonzero"/><path fill="#eba94a" d="M 681.824219 38.441406 C 681.824219 42.042969 678.90625 44.972656 675.304688 44.972656 C 671.707031 44.972656 668.789062 42.042969 668.789062 38.441406 C 668.789062 34.835938 671.707031 31.914062 675.304688 31.914062 C 678.90625 31.914062 681.824219 34.835938 681.824219 38.441406 " fill-opacity="1" fill-rule="nonzero"/><path fill="#eba94a" d="M 822.652344 131.847656 C 822.652344 135.449219 819.730469 138.371094 816.121094 138.371094 C 812.523438 138.371094 809.605469 135.449219 809.605469 131.847656 C 809.605469 128.234375 812.523438 125.3125 816.121094 125.3125 C 819.730469 125.3125 822.652344 128.234375 822.652344 131.847656 " fill-opacity="1" fill-rule="nonzero"/><path fill="#eba94a" d="M 958.5 43.628906 C 952.308594 49.851562 946.113281 56.070312 939.929688 62.292969 C 937.6875 64.542969 941.167969 68.019531 943.398438 65.773438 C 949.59375 59.550781 955.789062 53.328125 961.972656 47.113281 C 964.214844 44.859375 960.742188 41.378906 958.5 43.628906 " fill-opacity="1" fill-rule="nonzero"/><path fill="#eba94a" d="M 948.285156 43.234375 C 942.089844 49.449219 935.898438 55.671875 929.714844 61.894531 C 927.472656 64.140625 930.941406 67.621094 933.183594 65.371094 C 939.378906 59.152344 945.574219 52.929688 951.757812 46.714844 C 954 44.460938 950.527344 40.980469 948.285156 43.234375 " fill-opacity="1" fill-rule="nonzero"/><path fill="#eba94a" d="M 958.945312 53.863281 C 952.75 60.085938 946.566406 66.308594 940.371094 72.527344 C 938.128906 74.777344 941.601562 78.257812 943.851562 76.007812 C 950.035156 69.785156 956.230469 63.566406 962.425781 57.34375 C 964.667969 55.09375 961.1875 51.613281 958.945312 53.863281 " fill-opacity="1" fill-rule="nonzero"/><path fill="#eba94a" d="M 972.199219 233.210938 C 972.199219 236.8125 969.277344 239.734375 965.679688 239.734375 C 962.070312 239.734375 959.160156 236.8125 959.160156 233.210938 C 959.160156 229.597656 962.070312 226.675781 965.679688 226.675781 C 969.277344 226.675781 972.199219 229.597656 972.199219 233.210938 " fill-opacity="1" fill-rule="nonzero"/><path fill="#479ba0" d="M 54.773438 42.808594 C 51.851562 27.933594 38.242188 18.828125 23.441406 20.886719 C 8.449219 22.976562 -0.421875 38.066406 1.546875 52.25 C 1.742188 53.675781 3.390625 54.167969 4.570312 53.96875 C 20.734375 51.257812 36.894531 48.550781 53.054688 45.835938 C 56.175781 45.3125 54.847656 40.570312 51.75 41.089844 C 35.589844 43.804688 19.425781 46.515625 3.265625 49.226562 C 4.269531 49.800781 5.277344 50.371094 6.289062 50.945312 C 4.578125 38.640625 12.777344 27.988281 24.75 25.632812 C 36.921875 23.242188 47.78125 32.648438 50.03125 44.117188 C 50.644531 47.230469 55.378906 45.90625 54.773438 42.808594 " fill-opacity="1" fill-rule="nonzero"/><path fill="#479ba0" d="M 81.089844 196.015625 C 73.085938 192.425781 65.082031 188.832031 57.078125 185.238281 C 54.207031 183.960938 51.707031 188.191406 54.59375 189.492188 C 62.601562 193.082031 70.601562 196.667969 78.605469 200.257812 C 81.476562 201.546875 83.980469 197.304688 81.089844 196.015625 " fill-opacity="1" fill-rule="nonzero"/><path fill="#479ba0" d="M 77.84375 186.3125 C 69.835938 182.71875 61.832031 179.125 53.828125 175.535156 C 50.960938 174.246094 48.457031 178.488281 51.347656 179.785156 C 59.351562 183.378906 67.355469 186.960938 75.359375 190.554688 C 78.226562 191.84375 80.730469 187.601562 77.84375 186.3125 " fill-opacity="1" fill-rule="nonzero"/><path fill="#479ba0" d="M 71.6875 200.050781 C 63.683594 196.46875 55.679688 192.878906 47.675781 189.285156 C 44.804688 187.996094 42.300781 192.238281 45.191406 193.535156 C 53.195312 197.121094 61.203125 200.710938 69.203125 204.304688 C 72.074219 205.59375 74.574219 201.351562 71.6875 200.050781 " fill-opacity="1" fill-rule="nonzero"/><g clip-path="url(#id4)"><path fill="#834baa" d="M 38.691406 287.703125 C 44.863281 276.984375 41.734375 264.128906 31.519531 257.269531 C 21.261719 250.390625 7.621094 254.738281 1.117188 264.457031 C 0.355469 265.585938 0.917969 267.140625 2 267.8125 C 13.109375 274.742188 24.21875 281.671875 35.328125 288.589844 C 38.027344 290.273438 40.492188 286.011719 37.808594 284.335938 C 26.699219 277.417969 15.589844 270.488281 4.480469 263.570312 C 4.773438 264.691406 5.070312 265.8125 5.367188 266.933594 C 10.730469 258.921875 20.742188 256.726562 29.039062 261.523438 C 37.382812 266.335938 38.988281 277.339844 34.441406 285.222656 C 32.855469 287.980469 37.109375 290.449219 38.691406 287.703125 " fill-opacity="1" fill-rule="nonzero"/></g><path fill="#834baa" d="M 46.46875 113.613281 C 46.46875 117.222656 43.550781 120.148438 39.949219 120.148438 C 36.34375 120.148438 33.425781 117.222656 33.425781 113.613281 C 33.425781 110.007812 36.34375 107.089844 39.949219 107.089844 C 43.550781 107.089844 46.46875 110.007812 46.46875 113.613281 " fill-opacity="1" fill-rule="nonzero"/><path fill="#c62f6a" d="M 111.4375 151.851562 C 114.664062 157.945312 117.878906 164.046875 121.105469 170.128906 C 122.980469 173.683594 124.605469 177.078125 128.929688 177.699219 C 136.148438 178.742188 140.414062 171.4375 137.769531 165.328125 C 135.066406 159.066406 131.289062 153.074219 128.09375 147.046875 C 126.226562 143.496094 124.605469 140.097656 120.277344 139.46875 C 113.0625 138.4375 108.792969 145.730469 111.4375 151.851562 C 112.699219 154.765625 116.925781 152.246094 115.6875 149.371094 C 114.59375 146.863281 116.1875 145.058594 118.5 144.371094 C 121.515625 143.457031 122.835938 147.589844 123.855469 149.527344 C 127.082031 155.621094 130.308594 161.714844 133.523438 167.808594 C 134.820312 170.25 132.871094 172.15625 130.710938 172.808594 C 127.691406 173.714844 126.375 169.589844 125.351562 167.648438 C 122.125 161.558594 118.902344 155.464844 115.6875 149.371094 C 114.203125 146.566406 109.953125 149.046875 111.4375 151.851562 " fill-opacity="1" fill-rule="nonzero"/><path fill="#c62f6a" d="M 138.800781 18.621094 C 138.800781 22.226562 135.871094 25.148438 132.273438 25.148438 C 128.675781 25.148438 125.753906 22.226562 125.753906 18.621094 C 125.753906 15.019531 128.675781 12.089844 132.273438 12.089844 C 135.871094 12.089844 138.800781 15.019531 138.800781 18.621094 " fill-opacity="1" fill-rule="nonzero"/><path fill="#eba94a" d="M 111.074219 55.613281 C 104.878906 61.832031 98.691406 68.054688 92.5 74.277344 C 90.261719 76.523438 93.734375 80.003906 95.976562 77.753906 C 102.167969 71.535156 108.363281 65.3125 114.546875 59.097656 C 116.789062 56.84375 113.316406 53.363281 111.074219 55.613281 " fill-opacity="1" fill-rule="nonzero"/><path fill="#eba94a" d="M 100.859375 55.214844 C 94.664062 61.433594 88.472656 67.652344 82.28125 73.875 C 80.042969 76.125 83.519531 79.605469 85.757812 77.355469 C 91.949219 71.132812 98.140625 64.914062 104.332031 58.695312 C 106.570312 56.441406 103.089844 52.960938 100.859375 55.214844 " fill-opacity="1" fill-rule="nonzero"/><path fill="#eba94a" d="M 111.515625 65.847656 C 105.324219 72.070312 99.140625 78.289062 92.941406 84.511719 C 90.703125 86.757812 94.175781 90.238281 96.417969 87.988281 C 102.609375 81.769531 108.804688 75.546875 115 69.328125 C 117.230469 67.078125 113.757812 63.597656 111.515625 65.847656 " fill-opacity="1" fill-rule="nonzero"/><path fill="#eba94a" d="M 124.769531 245.191406 C 124.769531 248.796875 121.851562 251.71875 118.253906 251.71875 C 114.644531 251.71875 111.734375 248.796875 111.734375 245.191406 C 111.734375 241.582031 114.644531 238.65625 118.253906 238.65625 C 121.851562 238.65625 124.769531 241.582031 124.769531 245.191406 " fill-opacity="1" fill-rule="nonzero"/><path fill="#479ba0" d="M 210.761719 171.191406 C 217.132812 184.390625 232.503906 190.335938 246.039062 184.660156 C 259.785156 178.910156 265.714844 162.570312 260.082031 149.085938 C 259.421875 147.519531 258.046875 146.910156 256.472656 147.621094 C 241.527344 154.363281 226.59375 161.09375 211.648438 167.828125 C 208.757812 169.125 211.265625 173.367188 214.125 172.078125 C 229.070312 165.347656 244.003906 158.605469 258.949219 151.871094 C 257.75 151.378906 256.542969 150.886719 255.34375 150.394531 C 260.003906 161.558594 256.019531 173.691406 245.363281 179.570312 C 234.035156 185.828125 220.339844 179.757812 215.011719 168.710938 C 213.632812 165.847656 209.386719 168.347656 210.761719 171.191406 " fill-opacity="1" fill-rule="nonzero"/><path fill="#479ba0" d="M 187.824219 113.101562 C 196.527344 111.976562 205.226562 110.855469 213.929688 109.734375 C 217.027344 109.332031 217.066406 104.402344 213.929688 104.8125 C 205.226562 105.933594 196.527344 107.054688 187.824219 108.175781 C 184.726562 108.574219 184.6875 113.503906 187.824219 113.101562 " fill-opacity="1" fill-rule="nonzero"/><path fill="#479ba0" d="M 195.660156 119.675781 C 204.363281 118.554688 213.054688 117.429688 221.753906 116.308594 C 224.851562 115.914062 224.890625 110.984375 221.753906 111.386719 C 213.054688 112.507812 204.363281 113.632812 195.660156 114.753906 C 192.5625 115.15625 192.523438 120.078125 195.660156 119.675781 " fill-opacity="1" fill-rule="nonzero"/><path fill="#479ba0" d="M 193.734375 104.734375 C 202.433594 103.613281 211.136719 102.488281 219.839844 101.367188 C 222.933594 100.96875 222.976562 96.042969 219.839844 96.445312 C 211.136719 97.566406 202.433594 98.691406 193.734375 99.8125 C 190.636719 100.210938 190.597656 105.136719 193.734375 104.734375 " fill-opacity="1" fill-rule="nonzero"/><path fill="#479ba0" d="M 404.289062 42.808594 C 401.367188 27.933594 387.75 18.828125 372.953125 20.886719 C 357.960938 22.976562 349.089844 38.066406 351.058594 52.25 C 351.253906 53.675781 352.90625 54.167969 354.085938 53.96875 C 370.25 51.257812 386.40625 48.550781 402.570312 45.835938 C 405.695312 45.3125 404.359375 40.570312 401.261719 41.089844 C 385.097656 43.804688 368.941406 46.515625 352.777344 49.226562 C 353.78125 49.800781 354.792969 50.371094 355.796875 50.945312 C 354.097656 38.640625 362.296875 27.988281 374.261719 25.632812 C 386.433594 23.242188 397.296875 32.648438 399.550781 44.117188 C 400.160156 47.230469 404.890625 45.90625 404.289062 42.808594 " fill-opacity="1" fill-rule="nonzero"/><path fill="#479ba0" d="M 430.609375 196.015625 C 422.597656 192.425781 414.59375 188.832031 406.589844 185.238281 C 403.730469 183.960938 401.222656 188.191406 404.113281 189.492188 C 412.117188 193.082031 420.117188 196.667969 428.121094 200.257812 C 430.992188 201.546875 433.492188 197.304688 430.609375 196.015625 " fill-opacity="1" fill-rule="nonzero"/><path fill="#479ba0" d="M 427.355469 186.3125 L 403.34375 175.535156 C 400.472656 174.246094 397.96875 178.488281 400.867188 179.785156 C 408.859375 183.378906 416.875 186.960938 424.878906 190.554688 C 427.738281 191.84375 430.246094 187.601562 427.355469 186.3125 " fill-opacity="1" fill-rule="nonzero"/><path fill="#479ba0" d="M 421.199219 200.050781 C 413.195312 196.46875 405.195312 192.878906 397.191406 189.285156 C 394.320312 187.996094 391.820312 192.238281 394.703125 193.535156 C 402.707031 197.121094 410.71875 200.710938 418.722656 204.304688 C 421.582031 205.59375 424.089844 201.351562 421.199219 200.050781 " fill-opacity="1" fill-rule="nonzero"/><path fill="#834baa" d="M 388.203125 287.703125 C 394.378906 276.984375 391.25 264.128906 381.035156 257.269531 C 370.769531 250.390625 357.132812 254.738281 350.636719 264.457031 C 349.867188 265.585938 350.429688 267.140625 351.511719 267.8125 C 362.621094 274.742188 373.730469 281.671875 384.839844 288.589844 C 387.546875 290.273438 390.003906 286.011719 387.320312 284.335938 C 376.21875 277.417969 365.109375 270.488281 353.996094 263.570312 L 354.882812 266.933594 C 360.242188 258.921875 370.261719 256.726562 378.546875 261.523438 C 386.894531 266.335938 388.5 277.339844 383.957031 285.222656 C 382.375 287.980469 386.621094 290.449219 388.203125 287.703125 " fill-opacity="1" fill-rule="nonzero"/><path fill="#834baa" d="M 251.625 46.445312 C 257.789062 35.730469 254.664062 22.867188 244.449219 16.011719 C 234.191406 9.132812 220.554688 13.484375 214.058594 23.191406 C 213.289062 24.332031 213.851562 25.882812 214.933594 26.558594 C 226.042969 33.480469 237.152344 40.40625 248.261719 47.332031 C 250.957031 49.011719 253.425781 44.753906 250.742188 43.078125 C 239.628906 36.15625 228.519531 29.230469 217.410156 22.308594 C 217.703125 23.429688 218 24.554688 218.292969 25.675781 C 223.664062 17.664062 233.671875 15.476562 241.96875 20.261719 C 250.316406 25.078125 251.921875 36.078125 247.378906 43.960938 C 245.796875 46.714844 250.042969 49.195312 251.625 46.445312 " fill-opacity="1" fill-rule="nonzero"/><path fill="#834baa" d="M 395.980469 113.613281 C 395.980469 117.222656 393.0625 120.148438 389.460938 120.148438 C 385.855469 120.148438 382.945312 117.222656 382.945312 113.613281 C 382.945312 110.007812 385.855469 107.089844 389.460938 107.089844 C 393.0625 107.089844 395.980469 110.007812 395.980469 113.613281 " fill-opacity="1" fill-rule="nonzero"/><path fill="#834baa" d="M 183.910156 202.179688 C 183.910156 205.792969 180.992188 208.714844 177.394531 208.714844 C 173.792969 208.714844 170.875 205.792969 170.875 202.179688 C 170.875 198.578125 173.792969 195.652344 177.394531 195.652344 C 180.992188 195.652344 183.910156 198.578125 183.910156 202.179688 " fill-opacity="1" fill-rule="nonzero"/><path fill="#c62f6a" d="M 292.78125 63.953125 C 288.308594 69.195312 283.84375 74.441406 279.371094 79.683594 C 277.003906 82.460938 273.765625 85.664062 274.9375 89.726562 C 276.855469 96.421875 284.554688 98.859375 289.578125 93.863281 C 294.414062 89.066406 298.574219 83.3125 303 78.132812 C 305.367188 75.359375 308.601562 72.15625 307.433594 68.089844 C 305.515625 61.398438 297.816406 58.957031 292.78125 63.953125 C 290.53125 66.191406 294.011719 69.667969 296.261719 67.433594 C 298.308594 65.398438 300.738281 65.90625 302.28125 68.230469 C 304.109375 70.96875 299.851562 74.265625 298.296875 76.082031 C 294.238281 80.851562 290.167969 85.617188 286.105469 90.386719 C 284.199219 92.617188 281.535156 91.769531 280.089844 89.585938 C 278.261719 86.847656 282.519531 83.554688 284.070312 81.734375 C 288.132812 76.964844 292.191406 72.199219 296.261719 67.433594 C 298.308594 65.03125 294.847656 61.53125 292.78125 63.953125 " fill-opacity="1" fill-rule="nonzero"/><path fill="#c62f6a" d="M 301.859375 218.273438 C 301.859375 221.875 298.9375 224.796875 295.339844 224.796875 C 291.730469 224.796875 288.8125 221.875 288.8125 218.273438 C 288.8125 214.667969 291.730469 211.746094 295.339844 211.746094 C 298.9375 211.746094 301.859375 214.667969 301.859375 218.273438 " fill-opacity="1" fill-rule="nonzero"/><g clip-path="url(#id5)"><path fill="#c62f6a" d="M 488.316406 18.621094 C 488.316406 22.226562 485.394531 25.148438 481.785156 25.148438 C 478.1875 25.148438 475.265625 22.226562 475.265625 18.621094 C 475.265625 15.019531 478.1875 12.089844 481.785156 12.089844 C 485.394531 12.089844 488.316406 15.019531 488.316406 18.621094 " fill-opacity="1" fill-rule="nonzero"/></g><g clip-path="url(#id6)"><path fill="#c62f6a" d="M 460.953125 151.851562 C 464.175781 157.945312 467.402344 164.046875 470.625 170.128906 C 472.503906 173.683594 474.117188 177.078125 478.441406 177.699219 C 485.660156 178.742188 489.925781 171.4375 487.28125 165.328125 C 484.578125 159.066406 480.804688 153.074219 477.609375 147.046875 C 475.738281 143.496094 474.117188 140.097656 469.789062 139.46875 C 462.574219 138.4375 458.308594 145.730469 460.953125 151.851562 C 462.210938 154.765625 466.4375 152.246094 465.199219 149.371094 C 464.109375 146.863281 465.699219 145.058594 468.011719 144.371094 C 471.039062 143.457031 472.347656 147.589844 473.371094 149.527344 L 483.042969 167.808594 C 484.332031 170.25 482.386719 172.15625 480.222656 172.808594 C 477.203125 173.714844 475.886719 169.589844 474.863281 167.648438 C 471.640625 161.558594 468.425781 155.464844 465.199219 149.371094 C 463.714844 146.566406 459.46875 149.046875 460.953125 151.851562 " fill-opacity="1" fill-rule="nonzero"/></g><path fill="#eba94a" d="M 245.714844 271.304688 C 242.117188 263.304688 238.507812 255.300781 234.910156 247.289062 C 233.613281 244.394531 229.375 246.90625 230.664062 249.769531 C 234.273438 257.78125 237.871094 265.785156 241.46875 273.796875 C 242.777344 276.679688 247.003906 274.179688 245.714844 271.304688 " fill-opacity="1" fill-rule="nonzero"/><path fill="#eba94a" d="M 249.726562 261.894531 C 246.128906 253.882812 242.53125 245.882812 238.921875 237.871094 C 237.625 234.984375 233.386719 237.484375 234.675781 240.359375 C 238.285156 248.363281 241.882812 256.375 245.480469 264.375 C 246.777344 267.269531 251.015625 264.761719 249.726562 261.894531 " fill-opacity="1" fill-rule="nonzero"/><path fill="#eba94a" d="M 236.003906 268.078125 C 232.402344 260.074219 228.804688 252.0625 225.207031 244.058594 C 223.898438 241.167969 219.671875 243.675781 220.960938 246.539062 C 224.558594 254.542969 228.15625 262.554688 231.765625 270.566406 C 233.0625 273.453125 237.300781 270.953125 236.003906 268.078125 " fill-opacity="1" fill-rule="nonzero"/><path fill="#eba94a" d="M 183.910156 50.425781 C 183.910156 54.027344 180.992188 56.953125 177.394531 56.953125 C 173.792969 56.953125 170.875 54.027344 170.875 50.425781 C 170.875 46.820312 173.792969 43.894531 177.394531 43.894531 C 180.992188 43.894531 183.910156 46.820312 183.910156 50.425781 " fill-opacity="1" fill-rule="nonzero"/><path fill="#eba94a" d="M 324.738281 143.828125 C 324.738281 147.433594 321.816406 150.355469 318.207031 150.355469 C 314.609375 150.355469 311.691406 147.433594 311.691406 143.828125 C 311.691406 140.21875 314.609375 137.292969 318.207031 137.292969 C 321.816406 137.292969 324.738281 140.21875 324.738281 143.828125 " fill-opacity="1" fill-rule="nonzero"/><path fill="#eba94a" d="M 460.589844 55.613281 C 454.394531 61.832031 448.199219 68.054688 442.015625 74.277344 C 439.773438 76.523438 443.253906 80.003906 445.484375 77.753906 C 451.679688 71.535156 457.875 65.3125 464.058594 59.097656 C 466.300781 56.84375 462.828125 53.363281 460.589844 55.613281 " fill-opacity="1" fill-rule="nonzero"/><path fill="#eba94a" d="M 450.371094 55.214844 C 444.179688 61.433594 437.984375 67.652344 431.800781 73.875 C 429.558594 76.125 433.027344 79.605469 435.269531 77.355469 C 441.464844 71.132812 447.660156 64.914062 453.84375 58.695312 C 456.085938 56.441406 452.613281 52.960938 450.371094 55.214844 " fill-opacity="1" fill-rule="nonzero"/><path fill="#eba94a" d="M 461.03125 65.847656 C 454.835938 72.070312 448.652344 78.289062 442.457031 84.511719 C 440.214844 86.757812 443.6875 90.238281 445.9375 87.988281 C 452.121094 81.769531 458.316406 75.546875 464.511719 69.328125 C 466.753906 67.078125 463.273438 63.597656 461.03125 65.847656 " fill-opacity="1" fill-rule="nonzero"/><path fill="#eba94a" d="M 474.285156 245.191406 C 474.285156 248.796875 471.363281 251.71875 467.765625 251.71875 C 464.15625 251.71875 461.246094 248.796875 461.246094 245.191406 C 461.246094 241.582031 464.15625 238.65625 467.765625 238.65625 C 471.363281 238.65625 474.285156 241.582031 474.285156 245.191406 " fill-opacity="1" fill-rule="nonzero"/><path fill="#479ba0" d="M 1050.71875 30.824219 C 1047.796875 15.949219 1034.1875 6.84375 1019.386719 8.90625 C 1004.394531 10.996094 995.523438 26.085938 997.492188 40.269531 C 997.6875 41.691406 999.335938 42.183594 1000.515625 41.988281 C 1016.675781 39.277344 1032.839844 36.566406 1049 33.851562 C 1052.121094 33.328125 1050.792969 28.589844 1047.695312 29.105469 C 1031.53125 31.820312 1015.371094 34.53125 999.210938 37.242188 C 1000.214844 37.816406 1001.222656 38.390625 1002.230469 38.960938 C 1000.523438 26.660156 1008.722656 16.007812 1020.695312 13.652344 C 1032.867188 11.257812 1043.726562 20.664062 1045.976562 32.132812 C 1046.589844 35.246094 1051.324219 33.925781 1050.71875 30.824219 " fill-opacity="1" fill-rule="nonzero"/><path fill="#479ba0" d="M 1077.03125 184.035156 C 1069.03125 180.441406 1061.023438 176.847656 1053.023438 173.257812 C 1050.152344 171.976562 1047.652344 176.210938 1050.539062 177.507812 C 1058.542969 181.101562 1066.546875 184.683594 1074.550781 188.277344 C 1077.421875 189.566406 1079.925781 185.324219 1077.03125 184.035156 " fill-opacity="1" fill-rule="nonzero"/><path fill="#479ba0" d="M 1073.789062 174.328125 C 1065.78125 170.738281 1057.777344 167.144531 1049.773438 163.550781 C 1046.90625 162.261719 1044.402344 166.503906 1047.289062 167.804688 C 1055.292969 171.394531 1063.300781 174.980469 1071.300781 178.570312 C 1074.171875 179.859375 1076.675781 175.617188 1073.789062 174.328125 " fill-opacity="1" fill-rule="nonzero"/><path fill="#479ba0" d="M 1067.632812 188.070312 C 1059.625 184.488281 1051.625 180.894531 1043.621094 177.300781 C 1040.75 176.011719 1038.246094 180.253906 1041.132812 181.554688 C 1049.140625 185.136719 1057.144531 188.730469 1065.148438 192.320312 C 1068.019531 193.613281 1070.519531 189.371094 1067.632812 188.070312 " fill-opacity="1" fill-rule="nonzero"/><g clip-path="url(#id7)"><path fill="#834baa" d="M 1034.636719 275.722656 C 1040.808594 265.003906 1037.675781 252.148438 1027.464844 245.285156 C 1017.207031 238.40625 1003.566406 242.757812 997.0625 252.472656 C 996.300781 253.605469 996.863281 255.160156 997.945312 255.828125 C 1009.054688 262.757812 1020.164062 269.6875 1031.269531 276.605469 C 1033.972656 278.289062 1036.4375 274.027344 1033.753906 272.355469 C 1022.644531 265.4375 1011.535156 258.507812 1000.425781 251.585938 C 1000.71875 252.707031 1001.015625 253.832031 1001.308594 254.953125 C 1006.675781 246.941406 1016.6875 244.746094 1024.984375 249.539062 C 1033.324219 254.351562 1034.929688 265.355469 1030.386719 273.242188 C 1028.800781 275.996094 1033.054688 278.46875 1034.636719 275.722656 " fill-opacity="1" fill-rule="nonzero"/></g><path fill="#834baa" d="M 1042.414062 101.628906 C 1042.414062 105.242188 1039.496094 108.164062 1035.890625 108.164062 C 1032.289062 108.164062 1029.371094 105.242188 1029.371094 101.628906 C 1029.371094 98.027344 1032.289062 95.105469 1035.890625 95.105469 C 1039.496094 95.105469 1042.414062 98.027344 1042.414062 101.628906 " fill-opacity="1" fill-rule="nonzero"/><path fill="#c62f6a" d="M 1107.382812 139.867188 C 1110.609375 145.960938 1113.824219 152.066406 1117.046875 158.148438 C 1118.925781 161.699219 1120.550781 165.097656 1124.875 165.714844 C 1132.089844 166.761719 1136.359375 159.457031 1133.714844 153.34375 C 1131.011719 147.082031 1127.234375 141.089844 1124.039062 135.066406 C 1122.171875 131.511719 1120.550781 128.117188 1116.222656 127.488281 C 1109.007812 126.453125 1104.738281 133.746094 1107.382812 139.867188 C 1108.640625 142.78125 1112.871094 140.261719 1111.632812 137.386719 C 1110.539062 134.878906 1112.132812 133.078125 1114.441406 132.386719 C 1117.460938 131.472656 1118.777344 135.605469 1119.800781 137.546875 C 1123.027344 143.640625 1126.25 149.730469 1129.464844 155.824219 C 1130.765625 158.265625 1128.816406 160.175781 1126.65625 160.824219 C 1123.636719 161.730469 1122.320312 157.605469 1121.296875 155.667969 C 1118.070312 149.574219 1114.847656 143.480469 1111.632812 137.386719 C 1110.144531 134.582031 1105.898438 137.0625 1107.382812 139.867188 " fill-opacity="1" fill-rule="nonzero"/><path fill="#c62f6a" d="M 1134.746094 6.636719 C 1134.746094 10.246094 1131.816406 13.167969 1128.21875 13.167969 C 1124.621094 13.167969 1121.699219 10.246094 1121.699219 6.636719 C 1121.699219 3.035156 1124.621094 0.109375 1128.21875 0.109375 C 1131.816406 0.109375 1134.746094 3.035156 1134.746094 6.636719 " fill-opacity="1" fill-rule="nonzero"/><path fill="#eba94a" d="M 1107.019531 43.628906 C 1100.824219 49.851562 1094.636719 56.070312 1088.445312 62.292969 C 1086.207031 64.542969 1089.679688 68.019531 1091.917969 65.773438 C 1098.113281 59.550781 1104.304688 53.328125 1110.492188 47.113281 C 1112.730469 44.859375 1109.261719 41.378906 1107.019531 43.628906 " fill-opacity="1" fill-rule="nonzero"/><path fill="#eba94a" d="M 1096.804688 43.234375 C 1090.609375 49.449219 1084.417969 55.671875 1078.226562 61.894531 C 1075.988281 64.140625 1079.464844 67.621094 1081.703125 65.371094 C 1087.894531 59.152344 1094.085938 52.929688 1100.273438 46.714844 C 1102.515625 44.460938 1099.035156 40.980469 1096.804688 43.234375 " fill-opacity="1" fill-rule="nonzero"/><path fill="#eba94a" d="M 1107.460938 53.863281 C 1101.269531 60.085938 1095.082031 66.308594 1088.886719 72.527344 C 1086.648438 74.777344 1090.121094 78.257812 1092.359375 76.007812 C 1098.554688 69.785156 1104.75 63.566406 1110.941406 57.34375 C 1113.175781 55.09375 1109.703125 51.613281 1107.460938 53.863281 " fill-opacity="1" fill-rule="nonzero"/><path fill="#eba94a" d="M 1120.714844 233.210938 C 1120.714844 236.8125 1117.796875 239.734375 1114.199219 239.734375 C 1110.589844 239.734375 1107.679688 236.8125 1107.679688 233.210938 C 1107.679688 229.597656 1110.589844 226.675781 1114.199219 226.675781 C 1117.796875 226.675781 1120.714844 229.597656 1120.714844 233.210938 " fill-opacity="1" fill-rule="nonzero"/><g clip-path="url(#id8)"><path fill="#479ba0" d="M 1206.707031 159.210938 C 1213.078125 172.410156 1228.445312 178.355469 1241.984375 172.675781 C 1255.730469 166.925781 1261.660156 150.589844 1256.027344 137.101562 C 1255.367188 135.539062 1253.992188 134.929688 1252.417969 135.636719 C 1237.472656 142.378906 1222.539062 149.113281 1207.59375 155.84375 C 1204.703125 157.144531 1207.210938 161.386719 1210.070312 160.097656 C 1225.015625 153.363281 1239.949219 146.621094 1254.894531 139.890625 C 1253.695312 139.398438 1252.488281 138.90625 1251.285156 138.414062 C 1255.949219 149.574219 1251.964844 161.710938 1241.308594 167.585938 C 1229.980469 173.847656 1216.285156 167.773438 1210.957031 156.730469 C 1209.578125 153.867188 1205.332031 156.367188 1206.707031 159.210938 " fill-opacity="1" fill-rule="nonzero"/></g><path fill="#479ba0" d="M 1183.769531 101.117188 C 1192.472656 99.996094 1201.171875 98.875 1209.875 97.75 C 1212.972656 97.351562 1213.011719 92.421875 1209.875 92.828125 C 1201.171875 93.953125 1192.472656 95.074219 1183.769531 96.191406 C 1180.671875 96.59375 1180.632812 101.519531 1183.769531 101.117188 " fill-opacity="1" fill-rule="nonzero"/><path fill="#479ba0" d="M 1191.605469 107.691406 C 1200.308594 106.570312 1209 105.449219 1217.699219 104.324219 C 1220.796875 103.933594 1220.835938 99 1217.699219 99.40625 C 1209 100.527344 1200.308594 101.648438 1191.605469 102.769531 C 1188.507812 103.175781 1188.46875 108.097656 1191.605469 107.691406 " fill-opacity="1" fill-rule="nonzero"/><path fill="#479ba0" d="M 1189.679688 92.75 C 1198.378906 91.628906 1207.082031 90.507812 1215.78125 89.382812 C 1218.878906 88.988281 1218.917969 84.058594 1215.78125 84.460938 C 1207.082031 85.585938 1198.378906 86.707031 1189.679688 87.832031 C 1186.582031 88.230469 1186.542969 93.15625 1189.679688 92.75 " fill-opacity="1" fill-rule="nonzero"/><g clip-path="url(#id9)"><path fill="#834baa" d="M 1247.570312 34.460938 C 1253.734375 23.746094 1250.609375 10.886719 1240.394531 4.03125 C 1230.136719 -2.851562 1216.5 1.5 1210 11.207031 C 1209.234375 12.347656 1209.796875 13.902344 1210.875 14.578125 C 1221.988281 21.496094 1233.097656 28.421875 1244.207031 35.347656 C 1246.902344 37.027344 1249.371094 32.773438 1246.683594 31.09375 C 1235.574219 24.175781 1224.464844 17.25 1213.355469 10.324219 C 1213.648438 11.449219 1213.945312 12.570312 1214.238281 13.691406 C 1219.609375 5.679688 1229.617188 3.492188 1237.914062 8.28125 C 1246.261719 13.097656 1247.867188 24.097656 1243.324219 31.980469 C 1241.738281 34.730469 1245.988281 37.210938 1247.570312 34.460938 " fill-opacity="1" fill-rule="nonzero"/></g><path fill="#834baa" d="M 1179.855469 190.195312 C 1179.855469 193.808594 1176.9375 196.730469 1173.335938 196.730469 C 1169.738281 196.730469 1166.820312 193.808594 1166.820312 190.195312 C 1166.820312 186.59375 1169.738281 183.671875 1173.335938 183.671875 C 1176.9375 183.671875 1179.855469 186.59375 1179.855469 190.195312 " fill-opacity="1" fill-rule="nonzero"/><g clip-path="url(#id10)"><path fill="#eba94a" d="M 1241.660156 259.324219 C 1238.0625 251.320312 1234.453125 243.320312 1230.855469 235.304688 C 1229.558594 232.414062 1225.320312 234.921875 1226.609375 237.785156 C 1230.214844 245.800781 1233.816406 253.800781 1237.414062 261.8125 C 1238.722656 264.699219 1242.949219 262.195312 1241.660156 259.324219 " fill-opacity="1" fill-rule="nonzero"/></g><g clip-path="url(#id11)"><path fill="#eba94a" d="M 1231.945312 256.09375 C 1228.347656 248.09375 1224.75 240.082031 1221.152344 232.078125 C 1219.84375 229.183594 1215.617188 231.695312 1216.902344 234.558594 C 1220.503906 242.5625 1224.101562 250.574219 1227.710938 258.585938 C 1229.007812 261.46875 1233.246094 258.96875 1231.945312 256.09375 " fill-opacity="1" fill-rule="nonzero"/></g><path fill="#eba94a" d="M 1179.855469 38.441406 C 1179.855469 42.042969 1176.9375 44.972656 1173.335938 44.972656 C 1169.738281 44.972656 1166.820312 42.042969 1166.820312 38.441406 C 1166.820312 34.835938 1169.738281 31.914062 1173.335938 31.914062 C 1176.9375 31.914062 1179.855469 34.835938 1179.855469 38.441406 " fill-opacity="1" fill-rule="nonzero"/><path fill="#479ba0" d="M 552.625 434.042969 C 549.707031 419.167969 536.097656 410.0625 521.296875 412.125 C 506.304688 414.210938 497.433594 429.304688 499.402344 443.488281 C 499.597656 444.910156 501.246094 445.402344 502.425781 445.207031 C 518.585938 442.496094 534.75 439.785156 550.910156 437.070312 C 554.03125 436.546875 552.703125 431.808594 549.605469 432.324219 C 533.441406 435.039062 517.28125 437.75 501.121094 440.460938 C 502.125 441.035156 503.132812 441.605469 504.140625 442.179688 C 502.433594 429.875 510.632812 419.226562 522.605469 416.867188 C 534.777344 414.476562 545.636719 423.882812 547.886719 435.351562 C 548.5 438.464844 553.234375 437.144531 552.628906 434.042969 " fill-opacity="1" fill-rule="nonzero"/><path fill="#479ba0" d="M 578.941406 587.253906 C 570.9375 583.660156 562.933594 580.066406 554.929688 576.472656 C 552.0625 575.195312 549.5625 579.425781 552.449219 580.726562 C 560.453125 584.320312 568.457031 587.902344 576.460938 591.496094 C 579.332031 592.785156 581.835938 588.542969 578.941406 587.253906 " fill-opacity="1" fill-rule="nonzero"/><path fill="#479ba0" d="M 575.699219 577.546875 C 567.691406 573.953125 559.683594 570.363281 551.683594 566.769531 C 548.816406 565.480469 546.3125 569.722656 549.199219 571.023438 C 557.203125 574.613281 565.210938 578.195312 573.210938 581.789062 C 576.082031 583.078125 578.585938 578.835938 575.699219 577.546875 " fill-opacity="1" fill-rule="nonzero"/><path fill="#479ba0" d="M 569.542969 591.289062 C 561.535156 587.707031 553.535156 584.113281 545.527344 580.519531 C 542.660156 579.230469 540.15625 583.472656 543.042969 584.773438 C 551.050781 588.355469 559.054688 591.949219 567.058594 595.539062 C 569.929688 596.828125 572.429688 592.585938 569.542969 591.289062 " fill-opacity="1" fill-rule="nonzero"/><g clip-path="url(#id12)"><path fill="#834baa" d="M 536.546875 678.941406 C 542.71875 668.21875 539.585938 655.367188 529.375 648.503906 C 519.117188 641.625 505.476562 645.976562 498.972656 655.691406 C 498.210938 656.824219 498.773438 658.378906 499.855469 659.046875 C 510.964844 665.976562 522.074219 672.90625 533.179688 679.824219 C 535.882812 681.507812 538.347656 677.246094 535.664062 675.574219 C 524.554688 668.652344 513.445312 661.722656 502.335938 654.804688 C 502.628906 655.925781 502.925781 657.050781 503.21875 658.171875 C 508.585938 650.160156 518.597656 647.964844 526.894531 652.757812 C 535.234375 657.570312 536.839844 668.574219 532.296875 676.460938 C 530.710938 679.214844 534.964844 681.6875 536.546875 678.941406 " fill-opacity="1" fill-rule="nonzero"/></g><path fill="#834baa" d="M 544.324219 504.847656 C 544.324219 508.460938 541.40625 511.382812 537.800781 511.382812 C 534.199219 511.382812 531.28125 508.460938 531.28125 504.847656 C 531.28125 501.246094 534.199219 498.324219 537.800781 498.324219 C 541.40625 498.324219 544.324219 501.246094 544.324219 504.847656 " fill-opacity="1" fill-rule="nonzero"/><path fill="#c62f6a" d="M 609.292969 543.085938 C 612.519531 549.179688 615.734375 555.28125 618.957031 561.367188 C 620.835938 564.917969 622.457031 568.316406 626.785156 568.933594 C 634 569.976562 638.269531 562.675781 635.625 556.5625 C 632.921875 550.300781 629.144531 544.308594 625.949219 538.285156 C 624.082031 534.730469 622.457031 531.335938 618.132812 530.703125 C 610.914062 529.671875 606.648438 536.964844 609.292969 543.085938 C 610.550781 546 614.78125 543.480469 613.539062 540.605469 C 612.449219 538.097656 614.042969 536.296875 616.351562 535.605469 C 619.371094 534.691406 620.6875 538.824219 621.710938 540.765625 C 624.9375 546.855469 628.160156 552.949219 631.375 559.042969 C 632.675781 561.484375 630.726562 563.394531 628.5625 564.042969 C 625.546875 564.949219 624.226562 560.824219 623.207031 558.886719 C 619.980469 552.792969 616.757812 546.699219 613.539062 540.605469 C 612.054688 537.800781 607.808594 540.28125 609.292969 543.085938 " fill-opacity="1" fill-rule="nonzero"/><g clip-path="url(#id13)"><path fill="#c62f6a" d="M 636.65625 409.855469 C 636.65625 413.460938 633.726562 416.386719 630.128906 416.386719 C 626.527344 416.386719 623.609375 413.460938 623.609375 409.855469 C 623.609375 406.253906 626.527344 403.328125 630.128906 403.328125 C 633.726562 403.328125 636.65625 406.253906 636.65625 409.855469 " fill-opacity="1" fill-rule="nonzero"/></g><path fill="#eba94a" d="M 608.929688 446.847656 C 602.734375 453.070312 596.546875 459.289062 590.355469 465.511719 C 588.113281 467.761719 591.589844 471.238281 593.828125 468.992188 C 600.023438 462.769531 606.214844 456.546875 612.398438 450.332031 C 614.640625 448.078125 611.171875 444.597656 608.929688 446.847656 " fill-opacity="1" fill-rule="nonzero"/><path fill="#eba94a" d="M 598.714844 446.449219 C 592.519531 452.667969 586.328125 458.890625 580.136719 465.113281 C 577.898438 467.359375 581.375 470.839844 583.613281 468.589844 C 589.804688 462.367188 595.996094 456.148438 602.183594 449.929688 C 604.425781 447.679688 600.945312 444.199219 598.714844 446.449219 " fill-opacity="1" fill-rule="nonzero"/><path fill="#eba94a" d="M 609.371094 457.082031 C 603.179688 463.304688 596.992188 469.523438 590.796875 475.746094 C 588.554688 477.996094 592.03125 481.476562 594.269531 479.226562 C 600.464844 473.003906 606.660156 466.785156 612.851562 460.5625 C 615.085938 458.3125 611.613281 454.832031 609.371094 457.082031 " fill-opacity="1" fill-rule="nonzero"/><path fill="#eba94a" d="M 622.625 636.429688 C 622.625 640.03125 619.707031 642.953125 616.105469 642.953125 C 612.5 642.953125 609.589844 640.03125 609.589844 636.429688 C 609.589844 632.816406 612.5 629.890625 616.105469 629.890625 C 619.707031 629.890625 622.625 632.816406 622.625 636.429688 " fill-opacity="1" fill-rule="nonzero"/><path fill="#479ba0" d="M 708.617188 562.429688 C 714.988281 575.628906 730.355469 581.574219 743.894531 575.894531 C 757.640625 570.144531 763.570312 553.804688 757.9375 540.320312 C 757.277344 538.757812 755.902344 538.144531 754.328125 538.855469 C 739.382812 545.597656 724.449219 552.328125 709.503906 559.0625 C 706.613281 560.363281 709.121094 564.605469 711.980469 563.316406 C 726.925781 556.582031 741.859375 549.839844 756.804688 543.105469 C 755.605469 542.613281 754.394531 542.121094 753.195312 541.628906 C 757.855469 552.792969 753.875 564.929688 743.21875 570.804688 C 731.890625 577.066406 718.195312 570.992188 712.867188 559.949219 C 711.488281 557.082031 707.242188 559.585938 708.617188 562.429688 " fill-opacity="1" fill-rule="nonzero"/><path fill="#479ba0" d="M 685.679688 504.335938 C 694.378906 503.214844 703.082031 502.089844 711.785156 500.96875 C 714.878906 500.570312 714.921875 495.640625 711.785156 496.046875 C 703.082031 497.167969 694.378906 498.292969 685.679688 499.410156 C 682.582031 499.8125 682.542969 504.738281 685.679688 504.335938 " fill-opacity="1" fill-rule="nonzero"/><path fill="#479ba0" d="M 693.515625 510.910156 C 702.21875 509.789062 710.910156 508.667969 719.609375 507.542969 C 722.707031 507.152344 722.746094 502.21875 719.609375 502.621094 C 710.910156 503.746094 702.21875 504.867188 693.515625 505.988281 C 690.417969 506.394531 690.378906 511.3125 693.515625 510.910156 " fill-opacity="1" fill-rule="nonzero"/><path fill="#479ba0" d="M 691.589844 495.96875 C 700.289062 494.847656 708.992188 493.726562 717.691406 492.601562 C 720.789062 492.207031 720.828125 487.277344 717.691406 487.679688 C 708.992188 488.804688 700.289062 489.925781 691.589844 491.046875 C 688.492188 491.449219 688.453125 496.375 691.589844 495.96875 " fill-opacity="1" fill-rule="nonzero"/><path fill="#479ba0" d="M 902.144531 434.042969 C 899.222656 419.167969 885.605469 410.0625 870.808594 412.125 C 855.816406 414.210938 846.945312 429.304688 848.914062 443.488281 C 849.109375 444.910156 850.761719 445.402344 851.941406 445.207031 C 868.105469 442.496094 884.257812 439.785156 900.421875 437.070312 C 903.550781 436.546875 902.210938 431.808594 899.117188 432.324219 C 882.953125 435.039062 866.796875 437.75 850.632812 440.460938 C 851.636719 441.035156 852.648438 441.605469 853.652344 442.179688 C 851.949219 429.875 860.152344 419.226562 872.117188 416.867188 C 884.289062 414.476562 895.152344 423.882812 897.40625 435.351562 C 898.015625 438.464844 902.742188 437.144531 902.144531 434.042969 " fill-opacity="1" fill-rule="nonzero"/><path fill="#479ba0" d="M 928.464844 587.253906 C 920.453125 583.660156 912.449219 580.066406 904.445312 576.472656 C 901.582031 575.195312 899.078125 579.425781 901.96875 580.726562 C 909.96875 584.320312 917.972656 587.902344 925.976562 591.496094 C 928.847656 592.785156 931.34375 588.542969 928.464844 587.253906 " fill-opacity="1" fill-rule="nonzero"/><path fill="#479ba0" d="M 925.210938 577.546875 L 901.199219 566.769531 C 898.328125 565.480469 895.820312 569.722656 898.722656 571.023438 C 906.714844 574.613281 914.730469 578.195312 922.730469 581.789062 C 925.59375 583.078125 928.101562 578.835938 925.210938 577.546875 " fill-opacity="1" fill-rule="nonzero"/><path fill="#479ba0" d="M 919.054688 591.289062 C 911.050781 587.707031 903.046875 584.113281 895.046875 580.519531 C 892.175781 579.230469 889.675781 583.472656 892.558594 584.773438 C 900.5625 588.355469 908.574219 591.949219 916.578125 595.539062 C 919.4375 596.828125 921.945312 592.585938 919.054688 591.289062 " fill-opacity="1" fill-rule="nonzero"/><g clip-path="url(#id14)"><path fill="#834baa" d="M 886.058594 678.941406 C 892.234375 668.21875 889.105469 655.367188 878.890625 648.503906 C 868.625 641.625 854.988281 645.976562 848.488281 655.691406 C 847.722656 656.824219 848.285156 658.378906 849.363281 659.046875 C 860.476562 665.976562 871.585938 672.90625 882.695312 679.824219 C 885.398438 681.507812 887.859375 677.246094 885.171875 675.574219 C 874.074219 668.652344 862.960938 661.722656 851.851562 654.804688 L 852.738281 658.171875 C 858.097656 650.160156 868.113281 647.964844 876.402344 652.757812 C 884.75 657.570312 886.351562 668.574219 881.8125 676.460938 C 880.226562 679.214844 884.476562 681.6875 886.058594 678.941406 " fill-opacity="1" fill-rule="nonzero"/></g><g clip-path="url(#id15)"><path fill="#834baa" d="M 749.480469 437.679688 C 755.644531 426.964844 752.519531 414.105469 742.300781 407.25 C 732.046875 400.367188 718.410156 404.71875 711.910156 414.425781 C 711.144531 415.566406 711.703125 417.117188 712.785156 417.796875 C 723.898438 424.714844 735.007812 431.640625 746.117188 438.566406 C 748.8125 440.246094 751.28125 435.988281 748.59375 434.3125 C 737.484375 427.390625 726.375 420.46875 715.265625 413.542969 C 715.558594 414.667969 715.855469 415.789062 716.148438 416.910156 C 721.515625 408.898438 731.527344 406.710938 739.824219 411.496094 C 748.171875 416.316406 749.773438 427.316406 745.234375 435.199219 C 743.648438 437.949219 747.898438 440.429688 749.480469 437.679688 " fill-opacity="1" fill-rule="nonzero"/></g><path fill="#834baa" d="M 893.835938 504.847656 C 893.835938 508.460938 890.914062 511.382812 887.316406 511.382812 C 883.707031 511.382812 880.796875 508.460938 880.796875 504.847656 C 880.796875 501.246094 883.707031 498.324219 887.316406 498.324219 C 890.914062 498.324219 893.835938 501.246094 893.835938 504.847656 " fill-opacity="1" fill-rule="nonzero"/><path fill="#834baa" d="M 681.765625 593.414062 C 681.765625 597.027344 678.847656 599.949219 675.246094 599.949219 C 671.648438 599.949219 668.730469 597.027344 668.730469 593.414062 C 668.730469 589.8125 671.648438 586.886719 675.246094 586.886719 C 678.847656 586.886719 681.765625 589.8125 681.765625 593.414062 " fill-opacity="1" fill-rule="nonzero"/><path fill="#c62f6a" d="M 790.636719 455.1875 C 786.164062 460.433594 781.699219 465.675781 777.226562 470.921875 C 774.855469 473.695312 771.621094 476.898438 772.792969 480.964844 C 774.710938 487.65625 782.40625 490.09375 787.433594 485.101562 C 792.269531 480.300781 796.429688 474.550781 800.851562 469.367188 C 803.222656 466.59375 806.457031 463.390625 805.289062 459.324219 C 803.371094 452.632812 795.671875 450.191406 790.636719 455.1875 C 788.386719 457.425781 791.867188 460.90625 794.117188 458.667969 C 796.164062 456.632812 798.589844 457.140625 800.136719 459.464844 C 801.964844 462.203125 797.707031 465.5 796.152344 467.316406 C 792.09375 472.085938 788.023438 476.851562 783.960938 481.621094 C 782.054688 483.855469 779.390625 483.003906 777.945312 480.820312 C 776.117188 478.082031 780.371094 474.789062 781.925781 472.96875 C 785.988281 468.203125 790.046875 463.433594 794.117188 458.667969 C 796.164062 456.265625 792.703125 452.769531 790.636719 455.1875 " fill-opacity="1" fill-rule="nonzero"/><path fill="#c62f6a" d="M 799.710938 609.507812 C 799.710938 613.109375 796.792969 616.035156 793.195312 616.035156 C 789.585938 616.035156 786.664062 613.109375 786.664062 609.507812 C 786.664062 605.90625 789.585938 602.980469 793.195312 602.980469 C 796.792969 602.980469 799.710938 605.90625 799.710938 609.507812 " fill-opacity="1" fill-rule="nonzero"/><g clip-path="url(#id16)"><path fill="#c62f6a" d="M 986.167969 409.855469 C 986.167969 413.460938 983.25 416.386719 979.640625 416.386719 C 976.042969 416.386719 973.121094 413.460938 973.121094 409.855469 C 973.121094 406.253906 976.042969 403.328125 979.640625 403.328125 C 983.25 403.328125 986.167969 406.253906 986.167969 409.855469 " fill-opacity="1" fill-rule="nonzero"/></g><path fill="#c62f6a" d="M 958.804688 543.085938 C 962.03125 549.179688 965.257812 555.28125 968.480469 561.367188 C 970.359375 564.917969 971.972656 568.316406 976.296875 568.933594 C 983.515625 569.976562 987.78125 562.675781 985.136719 556.5625 C 982.433594 550.300781 978.65625 544.308594 975.460938 538.285156 C 973.59375 534.730469 971.972656 531.335938 967.644531 530.703125 C 960.429688 529.671875 956.160156 536.964844 958.804688 543.085938 C 960.066406 546 964.292969 543.480469 963.054688 540.605469 C 961.960938 538.097656 963.554688 536.296875 965.867188 535.605469 C 968.894531 534.691406 970.203125 538.824219 971.222656 540.765625 L 980.898438 559.042969 C 982.1875 561.484375 980.242188 563.394531 978.078125 564.042969 C 975.058594 564.949219 973.742188 560.824219 972.71875 558.886719 C 969.492188 552.792969 966.277344 546.699219 963.054688 540.605469 C 961.570312 537.800781 957.320312 540.28125 958.804688 543.085938 " fill-opacity="1" fill-rule="nonzero"/><path fill="#eba94a" d="M 743.570312 662.542969 C 739.972656 654.539062 736.363281 646.535156 732.765625 638.523438 C 731.46875 635.628906 727.230469 638.140625 728.519531 641.003906 C 732.125 649.015625 735.726562 657.019531 739.324219 665.03125 C 740.632812 667.914062 744.859375 665.414062 743.570312 662.542969 " fill-opacity="1" fill-rule="nonzero"/><path fill="#eba94a" d="M 747.582031 653.132812 C 743.984375 645.121094 740.386719 637.117188 736.777344 629.105469 C 735.480469 626.222656 731.242188 628.722656 732.53125 631.59375 C 736.136719 639.597656 739.738281 647.609375 743.335938 655.613281 C 744.632812 658.503906 748.871094 655.996094 747.582031 653.132812 " fill-opacity="1" fill-rule="nonzero"/><path fill="#eba94a" d="M 733.855469 659.3125 C 730.257812 651.308594 726.660156 643.296875 723.0625 635.296875 C 721.753906 632.402344 717.527344 634.910156 718.8125 637.777344 C 722.414062 645.777344 726.011719 653.789062 729.621094 661.804688 C 730.917969 664.6875 735.15625 662.1875 733.855469 659.3125 " fill-opacity="1" fill-rule="nonzero"/><path fill="#eba94a" d="M 681.765625 441.660156 C 681.765625 445.261719 678.847656 448.1875 675.246094 448.1875 C 671.648438 448.1875 668.730469 445.261719 668.730469 441.660156 C 668.730469 438.054688 671.648438 435.132812 675.246094 435.132812 C 678.847656 435.132812 681.765625 438.054688 681.765625 441.660156 " fill-opacity="1" fill-rule="nonzero"/><path fill="#eba94a" d="M 822.59375 535.066406 C 822.59375 538.667969 819.671875 541.589844 816.0625 541.589844 C 812.464844 541.589844 809.542969 538.667969 809.542969 535.066406 C 809.542969 531.453125 812.464844 528.53125 816.0625 528.53125 C 819.671875 528.53125 822.59375 531.453125 822.59375 535.066406 " fill-opacity="1" fill-rule="nonzero"/><path fill="#eba94a" d="M 958.441406 446.847656 C 952.25 453.070312 946.054688 459.289062 939.871094 465.511719 C 937.628906 467.761719 941.109375 471.238281 943.339844 468.992188 C 949.535156 462.769531 955.730469 456.546875 961.914062 450.332031 C 964.15625 448.078125 960.683594 444.597656 958.441406 446.847656 " fill-opacity="1" fill-rule="nonzero"/><path fill="#eba94a" d="M 948.226562 446.449219 C 942.03125 452.667969 935.839844 458.890625 929.652344 465.113281 C 927.414062 467.359375 930.882812 470.839844 933.125 468.589844 C 939.320312 462.367188 945.511719 456.148438 951.699219 449.929688 C 953.941406 447.679688 950.46875 444.199219 948.226562 446.449219 " fill-opacity="1" fill-rule="nonzero"/><path fill="#eba94a" d="M 958.886719 457.082031 C 952.691406 463.304688 946.507812 469.523438 940.3125 475.746094 C 938.070312 477.996094 941.542969 481.476562 943.792969 479.226562 C 949.976562 473.003906 956.171875 466.785156 962.367188 460.5625 C 964.605469 458.3125 961.125 454.832031 958.886719 457.082031 " fill-opacity="1" fill-rule="nonzero"/><path fill="#eba94a" d="M 972.140625 636.429688 C 972.140625 640.03125 969.21875 642.953125 965.621094 642.953125 C 962.011719 642.953125 959.101562 640.03125 959.101562 636.429688 C 959.101562 632.816406 962.011719 629.890625 965.621094 629.890625 C 969.21875 629.890625 972.140625 632.816406 972.140625 636.429688 " fill-opacity="1" fill-rule="nonzero"/><path fill="#479ba0" d="M 54.714844 446.027344 C 51.792969 431.152344 38.183594 422.046875 23.382812 424.105469 C 8.390625 426.195312 -0.480469 441.285156 1.488281 455.46875 C 1.683594 456.890625 3.332031 457.382812 4.511719 457.1875 C 20.671875 454.476562 36.835938 451.765625 52.996094 449.050781 C 56.117188 448.53125 54.789062 443.789062 51.691406 444.308594 C 35.527344 447.023438 19.367188 449.734375 3.207031 452.445312 C 4.210938 453.015625 5.21875 453.589844 6.230469 454.164062 C 4.519531 441.859375 12.71875 431.207031 24.691406 428.851562 C 36.863281 426.460938 47.722656 435.863281 49.972656 447.332031 C 50.585938 450.449219 55.320312 449.125 54.714844 446.027344 " fill-opacity="1" fill-rule="nonzero"/><path fill="#479ba0" d="M 81.027344 599.234375 C 73.027344 595.640625 65.019531 592.050781 57.019531 588.457031 C 54.148438 587.175781 51.648438 591.410156 54.535156 592.710938 C 62.539062 596.300781 70.542969 599.886719 78.546875 603.476562 C 81.417969 604.765625 83.921875 600.523438 81.027344 599.234375 " fill-opacity="1" fill-rule="nonzero"/><path fill="#479ba0" d="M 77.785156 589.53125 C 69.777344 585.9375 61.773438 582.34375 53.769531 578.753906 C 50.902344 577.460938 48.398438 581.703125 51.285156 583.003906 C 59.292969 586.597656 67.296875 590.179688 75.300781 593.773438 C 78.167969 595.0625 80.671875 590.820312 77.785156 589.53125 " fill-opacity="1" fill-rule="nonzero"/><path fill="#479ba0" d="M 71.628906 603.269531 C 63.625 599.6875 55.621094 596.09375 47.617188 592.503906 C 44.746094 591.214844 42.242188 595.457031 45.132812 596.753906 C 53.136719 600.335938 61.144531 603.929688 69.144531 607.523438 C 72.015625 608.8125 74.515625 604.570312 71.628906 603.269531 " fill-opacity="1" fill-rule="nonzero"/><g clip-path="url(#id17)"><path fill="#834baa" d="M 38.632812 690.921875 C 44.804688 680.203125 41.675781 667.347656 31.460938 660.488281 C 21.203125 653.609375 7.5625 657.957031 1.058594 667.671875 C 0.296875 668.804688 0.859375 670.359375 1.941406 671.03125 C 13.050781 677.960938 24.160156 684.886719 35.265625 691.808594 C 37.96875 693.492188 40.433594 689.230469 37.75 687.554688 C 26.640625 680.636719 15.53125 673.707031 4.421875 666.789062 C 4.714844 667.910156 5.011719 669.03125 5.304688 670.152344 C 10.671875 662.140625 20.683594 659.945312 28.980469 664.738281 C 37.320312 669.554688 38.925781 680.558594 34.382812 688.441406 C 32.796875 691.199219 37.050781 693.667969 38.632812 690.921875 " fill-opacity="1" fill-rule="nonzero"/></g><path fill="#834baa" d="M 46.410156 516.828125 C 46.410156 520.441406 43.492188 523.367188 39.886719 523.367188 C 36.285156 523.367188 33.367188 520.441406 33.367188 516.828125 C 33.367188 513.226562 36.285156 510.304688 39.886719 510.304688 C 43.492188 510.304688 46.410156 513.226562 46.410156 516.828125 " fill-opacity="1" fill-rule="nonzero"/><path fill="#c62f6a" d="M 111.378906 555.070312 C 114.605469 561.164062 117.820312 567.265625 121.046875 573.347656 C 122.921875 576.902344 124.546875 580.296875 128.871094 580.917969 C 136.089844 581.960938 140.355469 574.65625 137.710938 568.542969 C 135.007812 562.285156 131.230469 556.289062 128.035156 550.265625 C 126.167969 546.714844 124.546875 543.316406 120.21875 542.6875 C 113.003906 541.652344 108.734375 548.949219 111.378906 555.070312 C 112.636719 557.984375 116.867188 555.464844 115.628906 552.589844 C 114.535156 550.078125 116.128906 548.277344 118.441406 547.589844 C 121.457031 546.675781 122.777344 550.808594 123.796875 552.746094 C 127.023438 558.839844 130.246094 564.933594 133.464844 571.023438 C 134.761719 573.464844 132.8125 575.375 130.652344 576.027344 C 127.632812 576.929688 126.316406 572.808594 125.292969 570.867188 C 122.066406 564.773438 118.84375 558.683594 115.628906 552.589844 C 114.144531 549.785156 109.894531 552.265625 111.378906 555.070312 " fill-opacity="1" fill-rule="nonzero"/><g clip-path="url(#id18)"><path fill="#c62f6a" d="M 138.742188 421.839844 C 138.742188 425.445312 135.8125 428.367188 132.214844 428.367188 C 128.617188 428.367188 125.695312 425.445312 125.695312 421.839844 C 125.695312 418.234375 128.617188 415.308594 132.214844 415.308594 C 135.8125 415.308594 138.742188 418.234375 138.742188 421.839844 " fill-opacity="1" fill-rule="nonzero"/></g><path fill="#eba94a" d="M 111.015625 458.832031 C 104.820312 465.050781 98.632812 471.273438 92.441406 477.492188 C 90.203125 479.742188 93.675781 483.222656 95.914062 480.972656 C 102.109375 474.753906 108.300781 468.53125 114.488281 462.3125 C 116.730469 460.0625 113.257812 456.582031 111.015625 458.832031 " fill-opacity="1" fill-rule="nonzero"/><path fill="#eba94a" d="M 100.800781 458.433594 C 94.605469 464.652344 88.414062 470.871094 82.222656 477.09375 C 79.984375 479.34375 83.460938 482.824219 85.699219 480.574219 C 91.890625 474.351562 98.082031 468.132812 104.269531 461.914062 C 106.511719 459.660156 103.03125 456.179688 100.800781 458.433594 " fill-opacity="1" fill-rule="nonzero"/><path fill="#eba94a" d="M 111.457031 469.066406 C 105.265625 475.285156 99.078125 481.507812 92.882812 487.726562 C 90.644531 489.976562 94.117188 493.457031 96.359375 491.207031 C 102.550781 484.988281 108.746094 478.765625 114.9375 472.542969 C 117.171875 470.296875 113.699219 466.816406 111.457031 469.066406 " fill-opacity="1" fill-rule="nonzero"/><path fill="#eba94a" d="M 124.710938 648.410156 C 124.710938 652.011719 121.792969 654.9375 118.195312 654.9375 C 114.585938 654.9375 111.675781 652.011719 111.675781 648.410156 C 111.675781 644.796875 114.585938 641.875 118.195312 641.875 C 121.792969 641.875 124.710938 644.796875 124.710938 648.410156 " fill-opacity="1" fill-rule="nonzero"/><path fill="#479ba0" d="M 210.703125 574.410156 C 217.074219 587.609375 232.441406 593.554688 245.980469 587.875 C 259.726562 582.128906 265.65625 565.789062 260.023438 552.304688 C 259.363281 550.738281 257.988281 550.128906 256.414062 550.835938 C 241.46875 557.578125 226.535156 564.3125 211.589844 571.046875 C 208.699219 572.34375 211.207031 576.585938 214.066406 575.296875 C 229.011719 568.566406 243.945312 561.820312 258.890625 555.089844 C 257.691406 554.597656 256.484375 554.105469 255.285156 553.613281 C 259.945312 564.773438 255.960938 576.910156 245.304688 582.789062 C 233.976562 589.046875 220.28125 582.976562 214.953125 571.929688 C 213.574219 569.066406 209.328125 571.566406 210.703125 574.410156 " fill-opacity="1" fill-rule="nonzero"/><path fill="#479ba0" d="M 187.765625 516.316406 C 196.46875 515.195312 205.167969 514.074219 213.871094 512.949219 C 216.96875 512.550781 217.007812 507.621094 213.871094 508.03125 C 205.167969 509.152344 196.46875 510.273438 187.765625 511.394531 C 184.667969 511.792969 184.628906 516.722656 187.765625 516.316406 " fill-opacity="1" fill-rule="nonzero"/><path fill="#479ba0" d="M 195.601562 522.894531 C 204.304688 521.769531 212.996094 520.648438 221.695312 519.527344 C 224.792969 519.132812 224.832031 514.203125 221.695312 514.605469 C 212.996094 515.726562 204.304688 516.851562 195.601562 517.972656 C 192.503906 518.375 192.464844 523.296875 195.601562 522.894531 " fill-opacity="1" fill-rule="nonzero"/><path fill="#479ba0" d="M 193.675781 507.953125 C 202.375 506.828125 211.078125 505.707031 219.78125 504.585938 C 222.875 504.1875 222.914062 499.257812 219.78125 499.664062 C 211.078125 500.785156 202.375 501.90625 193.675781 503.03125 C 190.578125 503.429688 190.539062 508.355469 193.675781 507.953125 " fill-opacity="1" fill-rule="nonzero"/><path fill="#479ba0" d="M 404.230469 446.027344 C 401.308594 431.152344 387.691406 422.046875 372.894531 424.105469 C 357.902344 426.195312 349.03125 441.285156 351 455.46875 C 351.195312 456.890625 352.847656 457.382812 354.027344 457.1875 C 370.191406 454.476562 386.34375 451.765625 402.507812 449.050781 C 405.636719 448.53125 404.300781 443.789062 401.203125 444.308594 C 385.039062 447.023438 368.882812 449.734375 352.71875 452.445312 C 353.722656 453.015625 354.734375 453.589844 355.738281 454.164062 C 354.039062 441.859375 362.238281 431.207031 374.203125 428.851562 C 386.375 426.460938 397.238281 435.863281 399.492188 447.332031 C 400.101562 450.449219 404.832031 449.125 404.230469 446.027344 " fill-opacity="1" fill-rule="nonzero"/><path fill="#479ba0" d="M 430.550781 599.234375 C 422.539062 595.640625 414.535156 592.050781 406.53125 588.457031 C 403.667969 587.175781 401.164062 591.410156 404.054688 592.710938 C 412.058594 596.300781 420.058594 599.886719 428.0625 603.476562 C 430.933594 604.765625 433.433594 600.523438 430.550781 599.234375 " fill-opacity="1" fill-rule="nonzero"/><path fill="#479ba0" d="M 427.296875 589.53125 L 403.285156 578.753906 C 400.414062 577.460938 397.910156 581.703125 400.808594 583.003906 C 408.800781 586.597656 416.816406 590.179688 424.820312 593.773438 C 427.679688 595.0625 430.1875 590.820312 427.296875 589.53125 " fill-opacity="1" fill-rule="nonzero"/><path fill="#479ba0" d="M 421.140625 603.269531 C 413.136719 599.6875 405.136719 596.09375 397.132812 592.503906 C 394.261719 591.214844 391.761719 595.457031 394.644531 596.753906 C 402.648438 600.335938 410.660156 603.929688 418.664062 607.523438 C 421.523438 608.8125 424.03125 604.570312 421.140625 603.269531 " fill-opacity="1" fill-rule="nonzero"/><g clip-path="url(#id19)"><path fill="#834baa" d="M 388.144531 690.921875 C 394.320312 680.203125 391.191406 667.347656 380.976562 660.488281 C 370.710938 653.609375 357.074219 657.957031 350.578125 667.671875 C 349.808594 668.804688 350.371094 670.359375 351.453125 671.03125 C 362.5625 677.960938 373.671875 684.886719 384.78125 691.808594 C 387.484375 693.492188 389.945312 689.230469 387.261719 687.554688 C 376.160156 680.636719 365.050781 673.707031 353.9375 666.789062 L 354.824219 670.152344 C 360.183594 662.140625 370.203125 659.945312 378.488281 664.738281 C 386.835938 669.554688 388.441406 680.558594 383.898438 688.441406 C 382.3125 691.199219 386.5625 693.667969 388.144531 690.921875 " fill-opacity="1" fill-rule="nonzero"/></g><g clip-path="url(#id20)"><path fill="#834baa" d="M 251.566406 449.664062 C 257.730469 438.949219 254.605469 426.085938 244.390625 419.230469 C 234.132812 412.347656 220.496094 416.703125 213.996094 426.410156 C 213.230469 427.546875 213.792969 429.101562 214.875 429.777344 C 225.984375 436.699219 237.09375 443.625 248.203125 450.546875 C 250.898438 452.230469 253.367188 447.972656 250.683594 446.296875 C 239.570312 439.375 228.460938 432.449219 217.351562 425.527344 C 217.644531 426.648438 217.941406 427.769531 218.234375 428.894531 C 223.605469 420.882812 233.613281 418.691406 241.910156 423.480469 C 250.257812 428.296875 251.863281 439.296875 247.320312 447.179688 C 245.734375 449.933594 249.984375 452.414062 251.566406 449.664062 " fill-opacity="1" fill-rule="nonzero"/></g><path fill="#834baa" d="M 395.921875 516.828125 C 395.921875 520.441406 393.003906 523.367188 389.402344 523.367188 C 385.796875 523.367188 382.882812 520.441406 382.882812 516.828125 C 382.882812 513.226562 385.796875 510.304688 389.402344 510.304688 C 393.003906 510.304688 395.921875 513.226562 395.921875 516.828125 " fill-opacity="1" fill-rule="nonzero"/><path fill="#834baa" d="M 183.851562 605.398438 C 183.851562 609.007812 180.933594 611.933594 177.332031 611.933594 C 173.734375 611.933594 170.816406 609.007812 170.816406 605.398438 C 170.816406 601.792969 173.734375 598.871094 177.332031 598.871094 C 180.933594 598.871094 183.851562 601.792969 183.851562 605.398438 " fill-opacity="1" fill-rule="nonzero"/><path fill="#c62f6a" d="M 292.722656 467.171875 C 288.25 472.414062 283.785156 477.660156 279.3125 482.902344 C 276.945312 485.679688 273.707031 488.882812 274.878906 492.945312 C 276.796875 499.640625 284.496094 502.078125 289.519531 497.082031 C 294.355469 492.285156 298.515625 486.53125 302.941406 481.351562 C 305.308594 478.578125 308.542969 475.375 307.375 471.308594 C 305.457031 464.617188 297.757812 462.175781 292.722656 467.171875 C 290.472656 469.40625 293.953125 472.886719 296.203125 470.648438 C 298.25 468.617188 300.679688 469.125 302.222656 471.449219 C 304.050781 474.1875 299.792969 477.480469 298.238281 479.300781 C 294.179688 484.066406 290.109375 488.835938 286.046875 493.605469 C 284.140625 495.835938 281.476562 494.988281 280.03125 492.804688 C 278.203125 490.066406 282.460938 486.773438 284.011719 484.953125 C 288.074219 480.183594 292.132812 475.417969 296.203125 470.648438 C 298.25 468.25 294.789062 464.75 292.722656 467.171875 " fill-opacity="1" fill-rule="nonzero"/><path fill="#c62f6a" d="M 301.800781 621.488281 C 301.800781 625.09375 298.878906 628.015625 295.28125 628.015625 C 291.671875 628.015625 288.75 625.09375 288.75 621.488281 C 288.75 617.886719 291.671875 614.964844 295.28125 614.964844 C 298.878906 614.964844 301.800781 617.886719 301.800781 621.488281 " fill-opacity="1" fill-rule="nonzero"/><g clip-path="url(#id21)"><path fill="#c62f6a" d="M 488.253906 421.839844 C 488.253906 425.445312 485.335938 428.367188 481.726562 428.367188 C 478.128906 428.367188 475.207031 425.445312 475.207031 421.839844 C 475.207031 418.234375 478.128906 415.308594 481.726562 415.308594 C 485.335938 415.308594 488.253906 418.234375 488.253906 421.839844 " fill-opacity="1" fill-rule="nonzero"/></g><g clip-path="url(#id22)"><path fill="#c62f6a" d="M 460.894531 555.070312 C 464.117188 561.164062 467.34375 567.265625 470.566406 573.347656 C 472.445312 576.902344 474.058594 580.296875 478.382812 580.917969 C 485.601562 581.960938 489.867188 574.65625 487.222656 568.542969 C 484.519531 562.285156 480.742188 556.289062 477.546875 550.265625 C 475.679688 546.714844 474.058594 543.316406 469.730469 542.6875 C 462.515625 541.652344 458.25 548.949219 460.894531 555.070312 C 462.152344 557.984375 466.378906 555.464844 465.140625 552.589844 C 464.050781 550.078125 465.640625 548.277344 467.953125 547.589844 C 470.980469 546.675781 472.289062 550.808594 473.3125 552.746094 L 482.984375 571.023438 C 484.273438 573.464844 482.328125 575.375 480.164062 576.027344 C 477.144531 576.929688 475.828125 572.808594 474.804688 570.867188 C 471.582031 564.773438 468.367188 558.683594 465.140625 552.589844 C 463.65625 549.785156 459.410156 552.265625 460.894531 555.070312 " fill-opacity="1" fill-rule="nonzero"/></g><path fill="#eba94a" d="M 245.65625 674.523438 C 242.058594 666.523438 238.449219 658.519531 234.851562 650.507812 C 233.554688 647.613281 229.316406 650.125 230.605469 652.988281 C 234.214844 661 237.8125 669.003906 241.410156 677.015625 C 242.71875 679.898438 246.945312 677.398438 245.65625 674.523438 " fill-opacity="1" fill-rule="nonzero"/><path fill="#eba94a" d="M 249.667969 665.113281 C 246.070312 657.101562 242.472656 649.097656 238.863281 641.085938 C 237.566406 638.203125 233.328125 640.703125 234.617188 643.578125 C 238.222656 651.578125 241.824219 659.59375 245.421875 667.59375 C 246.71875 670.488281 250.957031 667.976562 249.667969 665.113281 " fill-opacity="1" fill-rule="nonzero"/><path fill="#eba94a" d="M 235.945312 671.296875 C 232.34375 663.292969 228.746094 655.28125 225.148438 647.277344 C 223.839844 644.386719 219.613281 646.894531 220.898438 649.757812 C 224.5 657.761719 228.097656 665.773438 231.707031 673.785156 C 233.003906 676.667969 237.242188 674.167969 235.945312 671.296875 " fill-opacity="1" fill-rule="nonzero"/><path fill="#eba94a" d="M 183.851562 453.644531 C 183.851562 457.246094 180.933594 460.171875 177.332031 460.171875 C 173.734375 460.171875 170.816406 457.246094 170.816406 453.644531 C 170.816406 450.035156 173.734375 447.113281 177.332031 447.113281 C 180.933594 447.113281 183.851562 450.035156 183.851562 453.644531 " fill-opacity="1" fill-rule="nonzero"/><path fill="#eba94a" d="M 324.679688 547.046875 C 324.679688 550.652344 321.757812 553.574219 318.148438 553.574219 C 314.550781 553.574219 311.632812 550.652344 311.632812 547.046875 C 311.632812 543.433594 314.550781 540.511719 318.148438 540.511719 C 321.757812 540.511719 324.679688 543.433594 324.679688 547.046875 " fill-opacity="1" fill-rule="nonzero"/><path fill="#eba94a" d="M 460.527344 458.832031 C 454.335938 465.050781 448.140625 471.273438 441.957031 477.492188 C 439.714844 479.742188 443.195312 483.222656 445.425781 480.972656 C 451.621094 474.753906 457.816406 468.53125 464 462.3125 C 466.242188 460.0625 462.769531 456.582031 460.527344 458.832031 " fill-opacity="1" fill-rule="nonzero"/><path fill="#eba94a" d="M 450.3125 458.433594 C 444.121094 464.652344 437.925781 470.871094 431.742188 477.09375 C 429.5 479.34375 432.96875 482.824219 435.210938 480.574219 C 441.40625 474.351562 447.601562 468.132812 453.785156 461.914062 C 456.027344 459.660156 452.554688 456.179688 450.3125 458.433594 " fill-opacity="1" fill-rule="nonzero"/><path fill="#eba94a" d="M 460.972656 469.066406 C 454.777344 475.285156 448.59375 481.507812 442.398438 487.726562 C 440.15625 489.976562 443.628906 493.457031 445.878906 491.207031 C 452.0625 484.988281 458.257812 478.765625 464.453125 472.542969 C 466.695312 470.296875 463.214844 466.816406 460.972656 469.066406 " fill-opacity="1" fill-rule="nonzero"/><path fill="#eba94a" d="M 474.226562 648.410156 C 474.226562 652.011719 471.304688 654.9375 467.707031 654.9375 C 464.097656 654.9375 461.1875 652.011719 461.1875 648.410156 C 461.1875 644.796875 464.097656 641.875 467.707031 641.875 C 471.304688 641.875 474.226562 644.796875 474.226562 648.410156 " fill-opacity="1" fill-rule="nonzero"/><path fill="#479ba0" d="M 1050.65625 434.042969 C 1047.738281 419.167969 1034.128906 410.0625 1019.328125 412.125 C 1004.335938 414.210938 995.464844 429.304688 997.433594 443.488281 C 997.628906 444.910156 999.277344 445.402344 1000.457031 445.207031 C 1016.617188 442.496094 1032.78125 439.785156 1048.941406 437.070312 C 1052.0625 436.546875 1050.734375 431.808594 1047.636719 432.324219 C 1031.472656 435.039062 1015.3125 437.75 999.152344 440.460938 C 1000.15625 441.035156 1001.164062 441.605469 1002.171875 442.179688 C 1000.464844 429.875 1008.664062 419.226562 1020.636719 416.867188 C 1032.808594 414.476562 1043.667969 423.882812 1045.917969 435.351562 C 1046.53125 438.464844 1051.265625 437.144531 1050.660156 434.042969 " fill-opacity="1" fill-rule="nonzero"/><path fill="#479ba0" d="M 1076.972656 587.253906 C 1068.96875 583.660156 1060.964844 580.066406 1052.960938 576.472656 C 1050.09375 575.195312 1047.59375 579.425781 1050.480469 580.726562 C 1058.484375 584.320312 1066.488281 587.902344 1074.492188 591.496094 C 1077.363281 592.785156 1079.867188 588.542969 1076.972656 587.253906 " fill-opacity="1" fill-rule="nonzero"/><path fill="#479ba0" d="M 1073.730469 577.546875 C 1065.722656 573.953125 1057.714844 570.363281 1049.714844 566.769531 C 1046.847656 565.480469 1044.34375 569.722656 1047.230469 571.023438 C 1055.234375 574.613281 1063.242188 578.195312 1071.242188 581.789062 C 1074.113281 583.078125 1076.617188 578.835938 1073.730469 577.546875 " fill-opacity="1" fill-rule="nonzero"/><path fill="#479ba0" d="M 1067.574219 591.289062 C 1059.566406 587.707031 1051.566406 584.113281 1043.558594 580.519531 C 1040.691406 579.230469 1038.1875 583.472656 1041.074219 584.773438 C 1049.082031 588.355469 1057.085938 591.949219 1065.089844 595.539062 C 1067.960938 596.828125 1070.460938 592.585938 1067.574219 591.289062 " fill-opacity="1" fill-rule="nonzero"/><g clip-path="url(#id23)"><path fill="#834baa" d="M 1034.578125 678.941406 C 1040.75 668.21875 1037.617188 655.367188 1027.40625 648.503906 C 1017.148438 641.625 1003.507812 645.976562 997.003906 655.691406 C 996.242188 656.824219 996.804688 658.378906 997.886719 659.046875 C 1008.996094 665.976562 1020.105469 672.90625 1031.210938 679.824219 C 1033.914062 681.507812 1036.378906 677.246094 1033.695312 675.574219 C 1022.585938 668.652344 1011.476562 661.722656 1000.367188 654.804688 C 1000.660156 655.925781 1000.957031 657.050781 1001.25 658.171875 C 1006.617188 650.160156 1016.628906 647.964844 1024.925781 652.757812 C 1033.265625 657.570312 1034.871094 668.574219 1030.328125 676.460938 C 1028.742188 679.214844 1032.996094 681.6875 1034.578125 678.941406 " fill-opacity="1" fill-rule="nonzero"/></g><path fill="#834baa" d="M 1042.355469 504.847656 C 1042.355469 508.460938 1039.4375 511.382812 1035.832031 511.382812 C 1032.230469 511.382812 1029.3125 508.460938 1029.3125 504.847656 C 1029.3125 501.246094 1032.230469 498.324219 1035.832031 498.324219 C 1039.4375 498.324219 1042.355469 501.246094 1042.355469 504.847656 " fill-opacity="1" fill-rule="nonzero"/><path fill="#c62f6a" d="M 1107.324219 543.085938 C 1110.550781 549.179688 1113.765625 555.28125 1116.988281 561.367188 C 1118.867188 564.917969 1120.488281 568.316406 1124.816406 568.933594 C 1132.03125 569.976562 1136.300781 562.675781 1133.65625 556.5625 C 1130.953125 550.300781 1127.175781 544.308594 1123.980469 538.285156 C 1122.113281 534.730469 1120.488281 531.335938 1116.164062 530.703125 C 1108.945312 529.671875 1104.679688 536.964844 1107.324219 543.085938 C 1108.582031 546 1112.8125 543.480469 1111.570312 540.605469 C 1110.480469 538.097656 1112.074219 536.296875 1114.382812 535.605469 C 1117.402344 534.691406 1118.71875 538.824219 1119.742188 540.765625 C 1122.96875 546.855469 1126.191406 552.949219 1129.40625 559.042969 C 1130.707031 561.484375 1128.757812 563.394531 1126.597656 564.042969 C 1123.578125 564.949219 1122.261719 560.824219 1121.238281 558.886719 C 1118.011719 552.792969 1114.789062 546.699219 1111.570312 540.605469 C 1110.085938 537.800781 1105.839844 540.28125 1107.324219 543.085938 " fill-opacity="1" fill-rule="nonzero"/><g clip-path="url(#id24)"><path fill="#c62f6a" d="M 1134.6875 409.855469 C 1134.6875 413.460938 1131.757812 416.386719 1128.160156 416.386719 C 1124.558594 416.386719 1121.640625 413.460938 1121.640625 409.855469 C 1121.640625 406.253906 1124.558594 403.328125 1128.160156 403.328125 C 1131.757812 403.328125 1134.6875 406.253906 1134.6875 409.855469 " fill-opacity="1" fill-rule="nonzero"/></g><path fill="#eba94a" d="M 1106.960938 446.847656 C 1100.765625 453.070312 1094.578125 459.289062 1088.386719 465.511719 C 1086.144531 467.761719 1089.621094 471.238281 1091.859375 468.992188 C 1098.054688 462.769531 1104.246094 456.546875 1110.433594 450.332031 C 1112.671875 448.078125 1109.203125 444.597656 1106.960938 446.847656 " fill-opacity="1" fill-rule="nonzero"/><path fill="#eba94a" d="M 1096.746094 446.449219 C 1090.550781 452.667969 1084.359375 458.890625 1078.167969 465.113281 C 1075.929688 467.359375 1079.40625 470.839844 1081.644531 468.589844 C 1087.835938 462.367188 1094.027344 456.148438 1100.214844 449.929688 C 1102.457031 447.679688 1098.976562 444.199219 1096.746094 446.449219 " fill-opacity="1" fill-rule="nonzero"/><path fill="#eba94a" d="M 1107.402344 457.082031 C 1101.210938 463.304688 1095.023438 469.523438 1088.828125 475.746094 C 1086.585938 477.996094 1090.0625 481.476562 1092.300781 479.226562 C 1098.496094 473.003906 1104.691406 466.785156 1110.882812 460.5625 C 1113.117188 458.3125 1109.644531 454.832031 1107.402344 457.082031 " fill-opacity="1" fill-rule="nonzero"/><path fill="#eba94a" d="M 1120.65625 636.429688 C 1120.65625 640.03125 1117.738281 642.953125 1114.136719 642.953125 C 1110.53125 642.953125 1107.621094 640.03125 1107.621094 636.429688 C 1107.621094 632.816406 1110.53125 629.890625 1114.136719 629.890625 C 1117.738281 629.890625 1120.65625 632.816406 1120.65625 636.429688 " fill-opacity="1" fill-rule="nonzero"/><g clip-path="url(#id25)"><path fill="#479ba0" d="M 1206.648438 562.429688 C 1213.019531 575.628906 1228.386719 581.574219 1241.925781 575.894531 C 1255.671875 570.144531 1261.601562 553.804688 1255.96875 540.320312 C 1255.308594 538.757812 1253.933594 538.144531 1252.359375 538.855469 C 1237.414062 545.597656 1222.480469 552.328125 1207.535156 559.0625 C 1204.644531 560.363281 1207.152344 564.605469 1210.011719 563.316406 C 1224.957031 556.582031 1239.890625 549.839844 1254.835938 543.105469 C 1253.636719 542.613281 1252.425781 542.121094 1251.226562 541.628906 C 1255.886719 552.792969 1251.90625 564.929688 1241.25 570.804688 C 1229.921875 577.066406 1216.226562 570.992188 1210.898438 559.949219 C 1209.519531 557.082031 1205.273438 559.585938 1206.648438 562.429688 " fill-opacity="1" fill-rule="nonzero"/></g><path fill="#479ba0" d="M 1183.710938 504.335938 C 1192.414062 503.214844 1201.113281 502.089844 1209.816406 500.96875 C 1212.914062 500.570312 1212.953125 495.640625 1209.816406 496.046875 C 1201.113281 497.167969 1192.414062 498.292969 1183.710938 499.410156 C 1180.613281 499.8125 1180.574219 504.738281 1183.710938 504.335938 " fill-opacity="1" fill-rule="nonzero"/><path fill="#479ba0" d="M 1191.546875 510.910156 C 1200.25 509.789062 1208.941406 508.667969 1217.640625 507.542969 C 1220.738281 507.152344 1220.777344 502.21875 1217.640625 502.621094 C 1208.941406 503.746094 1200.25 504.867188 1191.546875 505.988281 C 1188.449219 506.394531 1188.410156 511.3125 1191.546875 510.910156 " fill-opacity="1" fill-rule="nonzero"/><path fill="#479ba0" d="M 1189.621094 495.96875 C 1198.320312 494.847656 1207.023438 493.726562 1215.722656 492.601562 C 1218.820312 492.207031 1218.859375 487.277344 1215.722656 487.679688 C 1207.023438 488.804688 1198.320312 489.925781 1189.621094 491.046875 C 1186.523438 491.449219 1186.484375 496.375 1189.621094 495.96875 " fill-opacity="1" fill-rule="nonzero"/><g clip-path="url(#id26)"><path fill="#834baa" d="M 1247.511719 437.679688 C 1253.675781 426.964844 1250.550781 414.105469 1240.332031 407.25 C 1230.078125 400.367188 1216.441406 404.71875 1209.941406 414.425781 C 1209.175781 415.566406 1209.738281 417.117188 1210.816406 417.796875 C 1221.929688 424.714844 1233.039062 431.640625 1244.148438 438.566406 C 1246.84375 440.246094 1249.3125 435.988281 1246.625 434.3125 C 1235.515625 427.390625 1224.40625 420.46875 1213.296875 413.542969 C 1213.589844 414.667969 1213.886719 415.789062 1214.179688 416.910156 C 1219.546875 408.898438 1229.558594 406.710938 1237.855469 411.496094 C 1246.203125 416.316406 1247.804688 427.316406 1243.265625 435.199219 C 1241.679688 437.949219 1245.929688 440.429688 1247.511719 437.679688 " fill-opacity="1" fill-rule="nonzero"/></g><path fill="#834baa" d="M 1179.796875 593.414062 C 1179.796875 597.027344 1176.878906 599.949219 1173.277344 599.949219 C 1169.679688 599.949219 1166.761719 597.027344 1166.761719 593.414062 C 1166.761719 589.8125 1169.679688 586.886719 1173.277344 586.886719 C 1176.878906 586.886719 1179.796875 589.8125 1179.796875 593.414062 " fill-opacity="1" fill-rule="nonzero"/><g clip-path="url(#id27)"><path fill="#eba94a" d="M 1241.601562 662.542969 C 1238.003906 654.539062 1234.394531 646.535156 1230.796875 638.523438 C 1229.5 635.628906 1225.261719 638.140625 1226.550781 641.003906 C 1230.15625 649.015625 1233.757812 657.019531 1237.355469 665.03125 C 1238.664062 667.914062 1242.890625 665.414062 1241.601562 662.542969 " fill-opacity="1" fill-rule="nonzero"/></g><g clip-path="url(#id28)"><path fill="#eba94a" d="M 1231.886719 659.3125 C 1228.289062 651.308594 1224.691406 643.296875 1221.09375 635.296875 C 1219.785156 632.402344 1215.558594 634.910156 1216.84375 637.777344 C 1220.445312 645.777344 1224.042969 653.789062 1227.652344 661.804688 C 1228.949219 664.6875 1233.1875 662.1875 1231.886719 659.3125 " fill-opacity="1" fill-rule="nonzero"/></g><path fill="#eba94a" d="M 1179.796875 441.660156 C 1179.796875 445.261719 1176.878906 448.1875 1173.277344 448.1875 C 1169.679688 448.1875 1166.761719 445.261719 1166.761719 441.660156 C 1166.761719 438.054688 1169.679688 435.132812 1173.277344 435.132812 C 1176.878906 435.132812 1179.796875 438.054688 1179.796875 441.660156 " fill-opacity="1" fill-rule="nonzero"/></svg>