<?xml version="1.0" encoding="utf-8"?>
<!-- Generator: Adobe Illustrator 15.0.2, SVG Export Plug-In . SVG Version: 6.00 Build 0)  -->
<!DOCTYPE svg PUBLIC "-//W3C//DTD SVG 1.1//EN" "http://www.w3.org/Graphics/SVG/1.1/DTD/svg11.dtd">
<svg version="1.1" id="Male" xmlns="http://www.w3.org/2000/svg" xmlns:xlink="http://www.w3.org/1999/xlink" x="0px" y="0px"
	 width="80px" height="80px" viewBox="0 0 80 80" enable-background="new 0 0 80 80" xml:space="preserve">
<g>
	<g>
		<path fill="#0056B3" d="M80,39.995C80,17.906,62.092,0,40,0C17.909,0,0,17.906,0,39.995c0,8.251,2.5,15.918,6.784,22.287
			c2.779-1.341,8.156-3.925,9.659-4.581c2.056-0.904,1.73-2.434,2.252-3.434s1.5-1.668,1.435-3.138
			c-0.065-1.467,0.196-2.468-0.326-3.334c-0.521-0.862-1.37-1.729-1.565-2.729c-0.196-1-0.328-3.399-0.328-3.399
			s-1.631-0.2-1.631-2.467c0-2.267,0-3.399,0-4.133s0.848-0.734,1.109,0.066c0-2.201,0-5.402,0-6.934
			c0-1.533,1.109-4.933,4.829-6.733c2.733-1.324,5.713-1.666,8.579-1.043c3.263-7.67,11.026-13.08,20.063-13.08
			c11.971,0,21.71,9.491,21.708,21.157c0,8.337-5.005,15.864-12.779,19.286l-8.522,10.228c-0.31,0.37-0.763,0.574-1.229,0.574
			c-0.186,0-0.366-0.031-0.545-0.095c-0.637-0.229-1.059-0.832-1.059-1.505V49.52c-4.013-0.43-7.675-1.914-10.707-4.15
			c-0.287,0.874-1.013,1.652-1.482,2.43c-0.521,0.866-0.26,1.867-0.326,3.334c-0.064,1.467,0.914,2.135,1.436,3.135
			s0.196,2.537,2.252,3.437c2.055,0.896,8.321,3.832,11.353,5.396c2.855,1.478,3.73,5.166,4.825,13.648
			C70.026,70.625,80,56.477,80,39.995z"/>
		<path fill="#0056B3" d="M38.664,28.199c0,1.533,0,4.734,0,6.934c0.261-0.799,1.109-0.8,1.109-0.066s0,1.866,0,4.133
			c0,1.946-1.201,2.368-1.54,2.448c3.124,2.817,7.263,4.604,11.867,4.787c0.859,0.034,1.537,0.739,1.537,1.6v4.533l5.939-7.125
			c0.165-0.197,0.374-0.353,0.61-0.451c6.794-2.846,11.185-9.318,11.186-16.492c0-9.901-8.304-17.957-18.51-17.957
			c-7.633,0-14.203,4.507-17.029,10.922c0.001,0,0.002,0,0.003,0.001C37.556,23.266,38.664,26.666,38.664,28.199z M58.392,25.601
			c1.399,0,2.534,1.134,2.534,2.533c0,1.399-1.135,2.533-2.534,2.533c-1.397,0-2.533-1.134-2.533-2.533
			C55.858,26.735,56.993,25.601,58.392,25.601z M51.438,25.601c1.398,0,2.534,1.134,2.534,2.533c0,1.399-1.136,2.533-2.534,2.533
			c-1.399,0-2.533-1.134-2.533-2.533C48.904,26.735,50.038,25.601,51.438,25.601z M44.482,25.601c1.397,0,2.533,1.134,2.533,2.533
			c0,1.399-1.136,2.533-2.533,2.533c-1.4,0-2.534-1.134-2.534-2.533C41.948,26.735,43.082,25.601,44.482,25.601z"/>
	</g>
</g>
<path d="M50.861,7.344c-9.037,0-16.8,5.41-20.063,13.08c-2.866-0.623-5.846-0.281-8.579,1.043c-3.72,1.8-4.829,5.2-4.829,6.733
	c0,1.532,0,4.733,0,6.934c-0.261-0.8-1.109-0.8-1.109-0.066s0,1.866,0,4.133c0,2.267,1.631,2.467,1.631,2.467s0.131,2.4,0.328,3.4
	c0.195,1,1.044,1.865,1.565,2.729c0.522,0.866,0.261,1.867,0.326,3.334c0.065,1.469-0.913,2.137-1.435,3.137
	s-0.196,2.529-2.252,3.435c-1.505,0.657-6.895,3.248-9.671,4.587C13.956,72.971,26.154,80,39.995,80
	c5.61,0,10.948-1.159,15.794-3.244c-1.094-8.488-1.97-12.18-4.826-13.656c-3.031-1.563-9.298-4.5-11.353-5.396
	c-2.057-0.899-1.731-2.437-2.253-3.437s-1.5-1.668-1.436-3.135c0.066-1.467-0.195-2.468,0.326-3.334
	c0.469-0.775,1.195-1.556,1.482-2.43c3.031,2.236,6.694,3.722,10.706,4.15v7.469c0,0.673,0.422,1.273,1.06,1.505
	c0.179,0.063,0.358,0.095,0.545,0.095c0.466,0,0.919-0.204,1.229-0.574l8.521-10.228c7.773-3.422,12.778-10.949,12.778-19.286
	C72.571,16.835,62.832,7.344,50.861,7.344z M58.187,44.992c-0.236,0.1-0.445,0.254-0.61,0.451l-5.939,7.125v-4.533
	c0-0.859-0.678-1.564-1.537-1.6c-4.604-0.185-8.743-1.97-11.867-4.787c0.339-0.08,1.54-0.502,1.54-2.448c0-2.267,0-3.399,0-4.133
	s-0.848-0.733-1.109,0.066c0-2.2,0-5.401,0-6.934c0-1.533-1.108-4.933-4.828-6.733c-0.001-0.001-0.002-0.001-0.003-0.001
	c2.827-6.415,9.396-10.922,17.029-10.922c10.206,0,18.51,8.056,18.51,17.957C69.371,35.674,64.98,42.146,58.187,44.992z"/>
<g>
	<circle cx="44.482" cy="28.134" r="2.533"/>
	<circle cx="51.438" cy="28.134" r="2.533"/>
	<circle cx="58.392" cy="28.134" r="2.533"/>
</g>
</svg>
