<?xml version="1.0" encoding="utf-8"?>
<!-- Generator: Adobe Illustrator 15.0.2, SVG Export Plug-In . SVG Version: 6.00 Build 0)  -->
<!DOCTYPE svg PUBLIC "-//W3C//DTD SVG 1.1//EN" "http://www.w3.org/Graphics/SVG/1.1/DTD/svg11.dtd">
<svg version="1.1" id="female" xmlns="http://www.w3.org/2000/svg" xmlns:xlink="http://www.w3.org/1999/xlink" x="0px" y="0px"
	 width="80px" height="80px" viewBox="0 0 80 80" enable-background="new 0 0 80 80" xml:space="preserve">
<g>
	<path fill="#FFFFFF" d="M11.665,34.4c0,0,3.333,0.868,6.4-0.4s4.8-4.133,6.267-6.6c1.333,0.8,3.934,3.533,4.6,5
		c0.667,1.466,1.268,4.133,1.667,4.267c0.401,0.134,1.867-1.333,2.467-2.271c0.6-0.939,1.534,0.337,1.533,1.807
		c0,0.366-0.046,0.69-0.125,0.978c0.079-0.288,0.125-0.613,0.125-0.98c0-1.467-0.933-2.745-1.533-1.807S31,36.798,30.6,36.664
		c-0.399-0.134-1-2.801-1.667-4.267c-0.666-1.467-3.267-4.2-4.6-5c-1.467,2.467-3.201,5.333-6.267,6.6s-6.4,0.4-6.4,0.4
		c-0.199-0.033-0.353,0.116-0.454,0.385C11.313,34.516,11.466,34.367,11.665,34.4z"/>
	<path fill="#FFFFFF" d="M80,39.995C80,17.906,62.094,0,40.005,0C17.917,0,0.01,17.906,0.01,39.995
		c0,6.858,1.729,13.313,4.771,18.953c2.272-1.533,5.058-3.406,5.52-3.716c0.8-0.537,1.333-1.104-0.167-1.104
		s-3.733,1.166-6.167-1.396c1.433-1.199,2.442-2.699,2.442-5.065s0-8.667,0-11.667s4.525-18.6,16.12-18.599
		c3.26,0,5.96,1.231,8.159,3.068C33.94,12.776,41.713,7.344,50.771,7.344c11.969,0,21.707,9.491,21.705,21.164
		c0,8.337-5.004,15.864-12.781,19.286l-8.521,10.229c-0.31,0.369-0.763,0.57-1.229,0.57c-0.184,0-0.365-0.031-0.545-0.095
		c-0.635-0.233-1.057-0.832-1.057-1.505V49.52c-3.478-0.381-6.804-1.59-9.688-3.479c0,0.641,0,1.199,0,1.626
		c0,2.366,1.003,3.866,2.44,5.065c-2.435,2.563-4.667,1.396-6.167,1.396s-0.967,0.572-0.167,1.104
		c0.8,0.535,6.511,3.347,7.991,5.769c1.415,2.313,2.813,4.866,2.937,18.58C65.085,76.82,80,60.152,80,39.995z"/>
	<path fill="#FFFFFF" d="M38.66,42.066c3.15,2.64,7.16,4.205,11.354,4.369c0.856,0.035,1.535,0.74,1.535,1.6v4.535l5.938-7.127
		c0.164-0.197,0.375-0.352,0.611-0.451c6.791-2.846,11.18-9.318,11.187-16.491c0-9.901-8.306-17.957-18.511-17.957
		c-8.23,0-15.222,5.241-17.62,12.462C37.009,27.795,38.66,34.189,38.66,36C38.66,37.499,38.66,39.822,38.66,42.066z M58.301,25.601
		c1.398,0,2.533,1.134,2.533,2.533c0,1.399-1.135,2.533-2.533,2.533s-2.533-1.134-2.533-2.533
		C55.768,26.735,56.902,25.601,58.301,25.601z M51.346,25.601c1.399,0,2.533,1.134,2.533,2.533c0,1.399-1.134,2.533-2.533,2.533
		c-1.398,0-2.533-1.134-2.533-2.533C48.813,26.735,49.947,25.601,51.346,25.601z M44.391,25.601c1.399,0,2.533,1.134,2.533,2.533
		c0,1.399-1.134,2.533-2.533,2.533c-1.398,0-2.533-1.134-2.533-2.533C41.857,26.735,42.992,25.601,44.391,25.601z"/>
	<path fill="#FFFFFF" d="M33.2,38.867c0.499-0.3,1.036-0.825,1.274-1.687c0.079-0.287,0.125-0.611,0.125-0.978
		c0.001-1.47-0.933-2.746-1.533-1.807c-0.6,0.938-2.066,2.405-2.467,2.271c-0.399-0.134-1-2.801-1.667-4.267
		c-0.666-1.467-3.267-4.2-4.6-5c-1.467,2.467-3.2,5.332-6.267,6.6s-6.4,0.4-6.4,0.4c-0.199-0.033-0.352,0.116-0.453,0.382
		c-0.304,0.808-0.13,2.696,0.721,3.947c1.134,1.668,2.067,1.666,2.8,4.205c0.734,2.529,2.601,4.935,3.534,6
		C19.2,50,20.401,51.2,22.533,51.2c2.132,0,5.067-2.334,6.4-4.468c1.333-2.133,2.268-4.865,2.6-6.065
		C31.866,39.467,32.533,39.267,33.2,38.867z"/>
</g>
<g>
	<path fill="#FFFFFF" d="M33.066,34.396c-0.6,0.938-2.066,2.405-2.467,2.271c-0.399-0.134-1-2.801-1.667-4.267
		c-0.666-1.467-3.267-4.2-4.6-5c-1.467,2.467-3.2,5.332-6.267,6.6s-6.4,0.4-6.4,0.4c-0.8-0.133-0.867,2.665,0.267,4.332
		c1.134,1.668,2.066,1.666,2.8,4.2c0.734,2.534,2.601,4.938,3.534,6.002c0.933,1.065,2.134,2.271,4.267,2.271
		c2.133,0,5.067-2.333,6.4-4.472c1.333-2.133,2.268-4.861,2.6-6.063c0.333-1.2,1-1.399,1.667-1.8c0.666-0.4,1.399-1.201,1.399-2.667
		C34.6,34.733,33.666,33.457,33.066,34.396z"/>
	<g>
		<path d="M50.771,7.344c-9.059,0-16.832,5.432-20.083,13.125c-2.199-1.837-4.899-3.068-8.159-3.068C10.934,17.4,6.409,33,6.409,36
			s0,9.301,0,11.667S5.4,51.533,3.967,52.732c2.434,2.563,4.667,1.396,6.167,1.396s0.967,0.566,0.167,1.104
			c-0.463,0.31-3.256,2.188-5.53,3.723C11.526,71.484,24.768,80,40,80c1.934,0,3.83-0.146,5.689-0.41
			c-0.123-13.722-1.521-16.275-2.937-18.589c-1.479-2.422-7.191-5.233-7.991-5.769c-0.8-0.531-1.333-1.104,0.167-1.104
			s3.732,1.166,6.167-1.396c-1.437-1.199-2.44-2.699-2.44-5.065c0-0.427,0-0.985,0-1.626c2.884,1.889,6.21,3.098,9.688,3.479v7.475
			c0,0.673,0.422,1.271,1.057,1.505c0.18,0.063,0.361,0.095,0.545,0.095c0.467,0,0.92-0.201,1.229-0.57l8.521-10.229
			c7.777-3.422,12.781-10.949,12.781-19.286C72.479,16.835,62.74,7.344,50.771,7.344z M33.2,38.867c-0.667,0.4-1.334,0.6-1.667,1.8
			c-0.332,1.2-1.267,3.933-2.6,6.065c-1.333,2.134-4.268,4.468-6.4,4.468c-2.132,0-3.333-1.2-4.266-2.267
			c-0.933-1.065-2.8-3.471-3.534-6c-0.733-2.539-1.666-2.537-2.8-4.205c-1.134-1.667-1.066-4.465-0.267-4.332
			c0,0,3.334,0.867,6.4-0.4s4.8-4.133,6.267-6.6c1.333,0.8,3.934,3.533,4.6,5c0.667,1.466,1.268,4.133,1.667,4.267
			c0.4,0.134,1.867-1.333,2.467-2.271S34.6,34.733,34.6,36.2C34.6,37.666,33.866,38.467,33.2,38.867z M58.098,44.992
			c-0.236,0.1-0.447,0.254-0.611,0.451l-5.938,7.127v-4.535c0-0.859-0.679-1.564-1.535-1.6c-4.193-0.164-8.203-1.729-11.354-4.369
			c0-2.244,0-4.567,0-6.066c0-1.811-1.651-8.205-5.506-12.994c2.398-7.221,9.389-12.462,17.62-12.462
			c10.205,0,18.511,8.056,18.511,17.957C69.277,35.674,64.889,42.146,58.098,44.992z"/>
		<g>
			<circle cx="44.391" cy="28.134" r="2.533"/>
			<circle cx="51.346" cy="28.134" r="2.533"/>
			<circle cx="58.301" cy="28.134" r="2.533"/>
		</g>
	</g>
</g>
</svg>
