<?xml version="1.0" encoding="utf-8"?>
<!-- Generator: Adobe Illustrator 15.0.2, SVG Export Plug-In . SVG Version: 6.00 Build 0)  -->
<!DOCTYPE svg PUBLIC "-//W3C//DTD SVG 1.1//EN" "http://www.w3.org/Graphics/SVG/1.1/DTD/svg11.dtd">
<svg version="1.1" id="female" xmlns="http://www.w3.org/2000/svg" xmlns:xlink="http://www.w3.org/1999/xlink" x="0px" y="0px"
	 width="80px" height="80px" viewBox="0 0 80 80" enable-background="new 0 0 80 80" xml:space="preserve">
<g>
	<path fill="#FFFFFF" d="M11.657,34.4c0,0,3.333,0.868,6.401-0.4c3.067-1.268,4.801-4.133,6.268-6.6c1.333,0.8,3.935,3.533,4.601,5
		c0.667,1.466,1.269,4.133,1.667,4.267c0.401,0.134,1.867-1.333,2.467-2.271c0.6-0.939,1.535,0.337,1.534,1.807
		c0,0.366-0.046,0.69-0.125,0.978c0.079-0.288,0.125-0.613,0.125-0.98c0-1.467-0.934-2.745-1.534-1.807s-2.066,2.404-2.466,2.27
		c-0.399-0.134-1-2.801-1.667-4.267c-0.666-1.467-3.268-4.2-4.601-5c-1.467,2.467-3.202,5.333-6.268,6.6
		c-3.066,1.267-6.401,0.4-6.401,0.4c-0.199-0.033-0.353,0.116-0.454,0.385C11.305,34.516,11.458,34.367,11.657,34.4z"/>
	<path fill="#0056B3" d="M80,39.995C80,17.906,62.092,0,40,0C17.909,0,0,17.906,0,39.995c0,6.858,1.729,13.313,4.771,18.953
		c2.273-1.533,5.059-3.406,5.521-3.716c0.8-0.537,1.333-1.104-0.167-1.104c-1.5,0-3.733,1.166-6.168-1.396
		C5.391,51.533,6.4,50.033,6.4,47.667S6.4,39,6.4,36s4.525-18.6,16.122-18.599c3.26,0,5.96,1.231,8.16,3.068
		c3.252-7.693,11.026-13.125,20.085-13.125c11.971,0,21.71,9.491,21.708,21.164c0,8.337-5.005,15.864-12.783,19.286L51.17,58.023
		c-0.311,0.369-0.763,0.569-1.229,0.569c-0.184,0-0.365-0.03-0.545-0.095c-0.635-0.232-1.058-0.832-1.058-1.505V49.52
		c-3.478-0.381-6.805-1.59-9.689-3.479c0,0.641,0,1.199,0,1.626c0,2.366,1.003,3.866,2.441,5.065
		c-2.436,2.563-4.668,1.396-6.168,1.396c-1.5,0-0.968,0.572-0.167,1.104c0.8,0.535,6.511,3.347,7.991,5.769
		c1.416,2.313,2.813,4.866,2.938,18.58C65.083,76.82,80,60.152,80,39.995z"/>
	<path fill="#0056B3" d="M38.655,42.066c3.15,2.64,7.161,4.205,11.354,4.369c0.856,0.034,1.535,0.739,1.535,1.6v4.535l5.938-7.127
		c0.164-0.197,0.375-0.353,0.611-0.451c6.792-2.846,11.182-9.318,11.189-16.491c0-9.901-8.308-17.957-18.515-17.957
		c-8.23,0-15.223,5.241-17.622,12.462c3.855,4.789,5.507,11.183,5.507,12.994C38.655,37.499,38.655,39.822,38.655,42.066z
		 M58.298,25.601c1.398,0,2.534,1.134,2.534,2.533c0,1.399-1.136,2.533-2.534,2.533s-2.533-1.134-2.533-2.533
		C55.765,26.735,56.899,25.601,58.298,25.601z M51.342,25.601c1.4,0,2.534,1.134,2.534,2.533c0,1.399-1.134,2.533-2.534,2.533
		c-1.397,0-2.533-1.134-2.533-2.533C48.809,26.735,49.943,25.601,51.342,25.601z M44.387,25.601c1.399,0,2.533,1.134,2.533,2.533
		c0,1.399-1.134,2.533-2.533,2.533c-1.398,0-2.534-1.134-2.534-2.533C41.853,26.735,42.987,25.601,44.387,25.601z"/>
	<path fill="#FFFFFF" d="M33.194,38.867c0.499-0.3,1.036-0.825,1.274-1.687c0.079-0.287,0.125-0.611,0.125-0.978
		c0.001-1.47-0.934-2.746-1.534-1.807c-0.6,0.938-2.066,2.405-2.467,2.271c-0.399-0.134-1-2.801-1.667-4.267
		c-0.666-1.467-3.268-4.2-4.601-5c-1.467,2.467-3.201,5.332-6.268,6.6c-3.067,1.268-6.401,0.4-6.401,0.4
		c-0.199-0.033-0.352,0.116-0.453,0.382c-0.304,0.808-0.13,2.696,0.721,3.947c1.134,1.668,2.067,1.666,2.8,4.206
		c0.734,2.528,2.601,4.935,3.535,6C19.193,50,20.394,51.2,22.526,51.2c2.132,0,5.067-2.334,6.4-4.468
		c1.333-2.133,2.269-4.865,2.601-6.065C31.86,39.467,32.527,39.267,33.194,38.867z"/>
</g>
<g>
	<path fill="#0056B3" d="M33.06,34.396c-0.6,0.938-2.066,2.405-2.467,2.271c-0.399-0.134-1-2.801-1.667-4.267
		c-0.666-1.467-3.268-4.2-4.601-5c-1.467,2.467-3.201,5.332-6.268,6.6c-3.067,1.268-6.401,0.4-6.401,0.4
		c-0.8-0.133-0.867,2.665,0.267,4.332c1.134,1.668,2.066,1.666,2.8,4.2c0.734,2.534,2.601,4.938,3.535,6.002
		c0.933,1.065,2.134,2.271,4.268,2.271c2.133,0,5.067-2.333,6.4-4.473c1.333-2.133,2.269-4.86,2.601-6.063
		c0.333-1.2,1-1.399,1.667-1.8c0.666-0.4,1.399-1.201,1.399-2.667C34.595,34.733,33.66,33.457,33.06,34.396z"/>
	<g>
		<path d="M50.768,7.344c-9.061,0-16.834,5.432-20.085,13.125c-2.2-1.837-4.9-3.068-8.16-3.068C10.926,17.4,6.4,33,6.4,36
			s0,9.301,0,11.667s-1.01,3.866-2.443,5.065c2.435,2.563,4.667,1.396,6.168,1.396c1.5,0,0.967,0.565,0.167,1.104
			c-0.463,0.31-3.256,2.188-5.531,3.723C11.518,71.484,24.761,80,39.995,80c1.934,0,3.83-0.146,5.69-0.41
			c-0.123-13.722-1.521-16.275-2.938-18.589c-1.479-2.422-7.191-5.233-7.991-5.769c-0.801-0.531-1.333-1.104,0.167-1.104
			c1.5,0,3.732,1.166,6.168-1.396c-1.438-1.199-2.441-2.699-2.441-5.065c0-0.427,0-0.985,0-1.626
			c2.884,1.889,6.211,3.098,9.689,3.479v7.476c0,0.673,0.423,1.271,1.058,1.505c0.18,0.063,0.361,0.095,0.545,0.095
			c0.467,0,0.92-0.2,1.229-0.569l8.522-10.229c7.778-3.422,12.783-10.949,12.783-19.286C72.478,16.835,62.738,7.344,50.768,7.344z
			 M33.194,38.867c-0.667,0.4-1.334,0.6-1.667,1.8c-0.332,1.2-1.267,3.933-2.601,6.065c-1.333,2.134-4.269,4.468-6.4,4.468
			c-2.133,0-3.333-1.2-4.267-2.267c-0.934-1.065-2.801-3.472-3.535-6c-0.733-2.54-1.667-2.538-2.8-4.206
			c-1.134-1.667-1.066-4.465-0.267-4.332c0,0,3.334,0.867,6.401-0.4c3.066-1.267,4.801-4.133,6.268-6.6
			c1.333,0.8,3.935,3.533,4.601,5c0.667,1.466,1.269,4.133,1.667,4.267c0.4,0.134,1.867-1.333,2.467-2.271s1.534,0.341,1.534,1.808
			C34.595,37.666,33.86,38.467,33.194,38.867z M58.095,44.992c-0.236,0.1-0.447,0.254-0.611,0.451l-5.938,7.127v-4.535
			c0-0.859-0.679-1.564-1.535-1.6c-4.193-0.164-8.204-1.729-11.354-4.369c0-2.244,0-4.567,0-6.066c0-1.811-1.652-8.205-5.507-12.994
			c2.398-7.221,9.39-12.462,17.622-12.462c10.207,0,18.515,8.056,18.515,17.957C69.276,35.674,64.887,42.146,58.095,44.992z"/>
		<g>
			<circle cx="44.387" cy="28.134" r="2.533"/>
			<circle cx="51.342" cy="28.134" r="2.533"/>
			<circle cx="58.298" cy="28.134" r="2.533"/>
		</g>
	</g>
</g>
</svg>
