<?xml version="1.0" encoding="utf-8"?>
<!-- Generator: Adobe Illustrator 15.0.2, SVG Export Plug-In . SVG Version: 6.00 Build 0)  -->
<!DOCTYPE svg PUBLIC "-//W3C//DTD SVG 1.1//EN" "http://www.w3.org/Graphics/SVG/1.1/DTD/svg11.dtd">
<svg version="1.1" id="Male" xmlns="http://www.w3.org/2000/svg" xmlns:xlink="http://www.w3.org/1999/xlink" x="0px" y="0px"
	 width="80px" height="80px" viewBox="0 0 80 80" enable-background="new 0 0 80 80" xml:space="preserve">
<g>
	<path fill="#FFFFFF" d="M80,39.995C80,17.906,62.094,0,40.005,0C17.917,0,0.01,17.906,0.01,39.995c0,8.251,2.5,15.918,6.783,22.287
		c2.779-1.341,8.155-3.924,9.658-4.581c2.056-0.904,1.73-2.434,2.252-3.434s1.5-1.668,1.435-3.137
		c-0.065-1.467,0.196-2.468-0.326-3.334c-0.521-0.863-1.37-1.729-1.565-2.729c-0.196-1-0.327-3.4-0.327-3.4s-1.631-0.2-1.631-2.467
		c0-2.267,0-3.399,0-4.133s0.848-0.734,1.109,0.066c0-2.201,0-5.402,0-6.934c0-1.533,1.109-4.933,4.828-6.733
		c2.733-1.324,5.713-1.666,8.578-1.043c3.263-7.67,11.025-13.08,20.061-13.08c11.969,0,21.707,9.491,21.705,21.157
		c0,8.337-5.004,15.864-12.777,19.286l-8.521,10.227c-0.31,0.371-0.763,0.575-1.229,0.575c-0.186,0-0.366-0.032-0.545-0.095
		c-0.637-0.23-1.059-0.832-1.059-1.505v-7.468c-4.012-0.43-7.674-1.914-10.705-4.151c-0.287,0.874-1.013,1.653-1.482,2.43
		c-0.521,0.866-0.26,1.867-0.326,3.334c-0.064,1.466,0.914,2.134,1.436,3.134s0.196,2.537,2.252,3.437
		c2.055,0.896,8.32,3.832,11.352,5.396c2.854,1.477,3.73,5.166,4.824,13.648C70.028,70.625,80,56.477,80,39.995z"/>
	<path fill="#FFFFFF" d="M38.669,28.199c0,1.533,0,4.734,0,6.934c0.261-0.799,1.109-0.8,1.109-0.066s0,1.866,0,4.133
		c0,1.946-1.201,2.368-1.54,2.448c3.124,2.818,7.262,4.604,11.866,4.787c0.859,0.035,1.537,0.74,1.537,1.6v4.533l5.938-7.125
		c0.165-0.197,0.374-0.352,0.61-0.451c6.793-2.846,11.183-9.318,11.184-16.492c0-9.901-8.303-17.957-18.507-17.957
		c-7.632,0-14.201,4.507-17.027,10.922c0.001,0,0.002,0,0.003,0.001C37.561,23.266,38.669,26.666,38.669,28.199z M58.395,25.601
		c1.399,0,2.533,1.134,2.533,2.533c0,1.399-1.134,2.533-2.533,2.533c-1.398,0-2.533-1.134-2.533-2.533
		C55.861,26.735,56.996,25.601,58.395,25.601z M51.441,25.601c1.398,0,2.533,1.134,2.533,2.533c0,1.399-1.135,2.533-2.533,2.533
		c-1.399,0-2.533-1.134-2.533-2.533C48.908,26.735,50.042,25.601,51.441,25.601z M44.486,25.601c1.398,0,2.533,1.134,2.533,2.533
		c0,1.399-1.135,2.533-2.533,2.533c-1.399,0-2.533-1.134-2.533-2.533C41.953,26.735,43.087,25.601,44.486,25.601z"/>
</g>
<path d="M50.865,7.344c-9.036,0-16.798,5.41-20.061,13.08c-2.865-0.623-5.845-0.281-8.578,1.043c-3.719,1.8-4.828,5.2-4.828,6.733
	c0,1.532,0,4.733,0,6.934c-0.261-0.8-1.109-0.8-1.109-0.066s0,1.866,0,4.133c0,2.267,1.631,2.467,1.631,2.467s0.131,2.4,0.327,3.4
	c0.195,1,1.044,1.865,1.565,2.729c0.522,0.866,0.261,1.867,0.326,3.334c0.065,1.469-0.913,2.137-1.435,3.137
	s-0.196,2.529-2.252,3.434c-1.505,0.658-6.894,3.248-9.67,4.587C13.964,72.971,26.16,80,40,80c5.609,0,10.947-1.159,15.792-3.244
	c-1.094-8.488-1.97-12.18-4.825-13.656c-3.031-1.563-9.297-4.5-11.352-5.396c-2.056-0.899-1.73-2.437-2.252-3.437
	s-1.5-1.668-1.436-3.134c0.066-1.467-0.195-2.468,0.326-3.334c0.469-0.776,1.195-1.556,1.482-2.43
	c3.031,2.237,6.693,3.722,10.705,4.151v7.468c0,0.673,0.422,1.274,1.059,1.505c0.179,0.063,0.359,0.095,0.545,0.095
	c0.466,0,0.919-0.204,1.229-0.575l8.521-10.227c7.773-3.422,12.777-10.949,12.777-19.286C72.572,16.835,62.834,7.344,50.865,7.344z
	 M58.189,44.992c-0.236,0.1-0.445,0.254-0.61,0.451l-5.938,7.125v-4.533c0-0.859-0.678-1.564-1.537-1.6
	c-4.604-0.184-8.742-1.969-11.866-4.787c0.339-0.08,1.54-0.502,1.54-2.448c0-2.267,0-3.399,0-4.133s-0.848-0.733-1.109,0.066
	c0-2.2,0-5.401,0-6.934c0-1.533-1.108-4.933-4.827-6.733c-0.001-0.001-0.002-0.001-0.003-0.001
	c2.826-6.415,9.396-10.922,17.027-10.922c10.204,0,18.507,8.056,18.507,17.957C69.372,35.674,64.982,42.146,58.189,44.992z"/>
<g>
	<circle cx="44.486" cy="28.134" r="2.533"/>
	<circle cx="51.441" cy="28.134" r="2.533"/>
	<circle cx="58.395" cy="28.134" r="2.533"/>
</g>
</svg>
