<svg xmlns="http://www.w3.org/2000/svg" xmlns:xlink="http://www.w3.org/1999/xlink" viewBox="0,0,256,256" width="50px" height="50px" fill-rule="nonzero"><g fill="#ffffff" fill-rule="nonzero" stroke="none" stroke-width="1" stroke-linecap="butt" stroke-linejoin="miter" stroke-miterlimit="10" stroke-dasharray="" stroke-dashoffset="0" font-family="none" font-weight="none" font-size="none" text-anchor="none" style="mix-blend-mode: normal"><g transform="scale(5.12,5.12)"><path d="M26.707,3.293l-21,21c-0.391,0.391 -0.391,1.024 0,1.414l5.586,5.586c0.391,0.391 1.024,0.391 1.414,0l26.586,-26.586c0.63,-0.63 0.184,-1.707 -0.707,-1.707h-11.172c-0.265,0 -0.519,0.105 -0.707,0.293zM39.293,24.707l-17.293,17.293l-6.293,-6.293c-0.391,-0.391 -0.391,-1.024 0,-1.414l11,-11c0.188,-0.188 0.442,-0.293 0.707,-0.293h11.172c0.891,0 1.337,1.077 0.707,1.707zM39.293,45.293l-7.293,-7.293l-10,4l4.707,4.707c0.188,0.188 0.442,0.293 0.707,0.293h11.172c0.891,0 1.337,-1.077 0.707,-1.707z"></path></g></g></svg>